<?xml version="1.0" encoding="utf-8"?>
<!-- Generator: Adobe Illustrator 21.0.0, SVG Export Plug-In . SVG Version: 6.00 Build 0)  -->
<svg version="1.1" xmlns="http://www.w3.org/2000/svg" xmlns:xlink="http://www.w3.org/1999/xlink" x="0px" y="0px"
	 viewBox="0 0 130 130" style="enable-background:new 0 0 130 130;" xml:space="preserve">
<style type="text/css">
	.st0{fill:none;stroke:#C0BFBF;stroke-width:6;stroke-miterlimit:10;}
	.st1{fill:none;stroke:#C0BFBF;stroke-width:4;stroke-miterlimit:10;}
	.st2{fill:none;stroke:#C0BFBF;stroke-width:6;stroke-linejoin:round;stroke-miterlimit:10;}
	.st3{fill:#C0BFBF;}
	.st4{fill:none;stroke:#C0BFBF;stroke-width:3;stroke-miterlimit:10;}
	.st5{fill:none;stroke:#C0BFBF;stroke-width:5;stroke-linejoin:round;stroke-miterlimit:10;}
	.st6{fill:none;stroke:#009933;stroke-width:4;stroke-miterlimit:10;}
	.st7{fill:none;stroke:#009933;stroke-width:6;stroke-miterlimit:10;}
	.st8{fill:none;stroke:#000000;stroke-width:5;stroke-miterlimit:10;}
	.st9{fill:none;stroke:#000000;stroke-width:6;stroke-miterlimit:10;}
	.st10{fill:none;stroke:#000000;stroke-width:3;stroke-miterlimit:10;}
	.st11{fill:none;stroke:#0099CC;stroke-width:6;stroke-miterlimit:10;}
	.st12{fill:#0099CC;}
	.st13{fill:none;stroke:#0099CC;stroke-width:5;stroke-miterlimit:10;}
	.st14{fill:none;stroke:#ED2224;stroke-width:6;stroke-miterlimit:10;}
	.st15{font-family:'Arial-BoldMT';}
	.st16{font-size:12px;}
	.st17{stroke:#000000;stroke-miterlimit:10;}
</style>
<g id="shadow">
	<g>
		<g>
			<line class="st0" x1="68.6" y1="54.6" x2="81.7" y2="47.6"/>
			<g>
				<polygon class="st3" points="80.2,56.9 79.5,48.8 73,43.6 92.4,41.8 				"/>
			</g>
		</g>
	</g>
	<line class="st0" x1="40.4" y1="69.6" x2="59.3" y2="59.5"/>
	<rect id="XMLID_3_" x="6.1" y="52.1" class="st0" width="29.9" height="29.9"/>
	<rect id="XMLID_4_" x="94" y="6.2" class="st0" width="29.9" height="29.9"/>
	<polygon class="st3" points="20.5,53.3 28.2,49.8 26.6,46.3 24.6,47.2 21.4,40.1 23.4,39.2 21.7,35.4 14,38.9 15.8,42.7 17.6,41.9 
		20.8,48.9 18.9,49.7 	"/>
	<polygon class="st3" points="19.5,118.1 21.5,118.1 21.5,125.8 19.5,125.8 19.5,130 27.9,130 27.9,125.8 25.7,125.8 25.7,118.1 
		27.9,118.1 27.9,113.9 19.5,113.9 	"/>
	<polygon class="st3" points="19.5,90.3 21.5,90.3 21.5,98.1 19.5,98.1 19.5,102.3 27.9,102.3 27.9,98.1 25.7,98.1 25.7,90.3 
		27.9,90.3 27.9,86.1 19.5,86.1 	"/>
	<circle class="st3" cx="23.6" cy="108.1" r="2.8"/>
	<polygon class="st3" points="19.6,19.9 17.4,20 17.3,11.9 19.5,11.9 19.4,7.5 11,7.6 11,12 13.1,12 13.2,20 11.2,20.1 11.2,24.4 
		19.6,24.3 	"/>
	<path class="st3" d="M16.1,33.6c1.6-0.1,2.8-1.4,2.7-3c0-0.8-0.4-1.5-0.9-2c-0.6-0.5-1.3-0.8-2-0.7c-1.6,0.1-2.8,1.4-2.7,3
		c0.1,1.5,1.3,2.7,2.8,2.7C16,33.6,16,33.6,16.1,33.6z"/>
</g>
<g id="main">
	<polygon points="17.8,51.6 25.5,48.2 24.6,46.3 22.6,47.2 19.4,40.1 21.4,39.2 19.7,35.4 12,38.9 13.8,42.7 15.6,41.9 18.8,48.9 
		16.9,49.7 	"/>
	<polygon points="17.5,118.1 19.5,118.1 19.5,125.8 17.5,125.8 17.5,130 25.9,130 25.9,125.8 23.7,125.8 23.7,118.1 25.9,118.1 
		25.9,113.9 17.5,113.9 	"/>
	<polygon points="17.5,90.3 19.5,90.3 19.5,98.1 17.5,98.1 17.5,102.3 25.9,102.3 25.9,98.1 23.7,98.1 23.7,90.3 25.9,90.3 
		25.9,86.1 17.5,86.1 	"/>
	<circle cx="21.6" cy="108.1" r="2.8"/>
	<polygon points="17.6,19.9 15.4,20 15.3,11.9 17.5,11.9 17.4,7.5 9,7.6 9,12 11.1,12 11.2,20 9.2,20.1 9.2,24.4 17.6,24.3 	"/>
	<path d="M14.1,33.6c1.6-0.1,2.8-1.4,2.7-3c0-0.8-0.4-1.5-0.9-2c-0.6-0.5-1.3-0.8-2-0.7c-1.6,0.1-2.8,1.4-2.7,3
		c0.1,1.5,1.3,2.7,2.8,2.7C14,33.6,14,33.6,14.1,33.6z"/>
	<circle id="XMLID_2_" cx="21.2" cy="67.1" r="5"/>
	<circle id="XMLID_8_" cx="108.9" cy="21.2" r="5"/>
	<rect id="XMLID_71_" x="3" y="49.1" class="st9" width="36" height="36"/>
	<rect id="XMLID_28_" x="91" y="3.1" class="st9" width="36" height="36"/>
	<g>
		<g>
			<line class="st9" x1="67.2" y1="52" x2="80.3" y2="44.9"/>
			<g>
				<polygon points="78.8,54.3 78,46.1 71.6,41 91,39.1 				"/>
			</g>
		</g>
	</g>
	<line class="st9" x1="39" y1="67" x2="57.9" y2="56.9"/>
</g>
</svg>
