<?xml version="1.0" encoding="utf-8"?>
<!-- Generator: Adobe Illustrator 21.0.0, SVG Export Plug-In . SVG Version: 6.00 Build 0)  -->
<svg version="1.1" xmlns="http://www.w3.org/2000/svg" xmlns:xlink="http://www.w3.org/1999/xlink" x="0px" y="0px"
	 viewBox="0 0 170 100" style="enable-background:new 0 0 170 100;" xml:space="preserve">
<style type="text/css">
	.st0{fill:none;stroke:#C0BFBF;stroke-width:6;stroke-miterlimit:10;}
	.st1{fill:#C0BFBF;}
	.st2{fill:none;stroke:#C0BFBF;stroke-width:6;stroke-linecap:round;stroke-linejoin:round;stroke-miterlimit:10;}
	.st3{fill:none;stroke:#C0BFBF;stroke-width:5;stroke-miterlimit:10;}
	.st4{fill:none;stroke:#C0BFBF;stroke-width:3;stroke-miterlimit:10;}
	.st5{fill:none;stroke:#C0BFBF;stroke-width:4;stroke-miterlimit:10;}
	.st6{fill:#ED2224;}
	.st7{fill:none;stroke:#ED2224;stroke-width:6;stroke-miterlimit:10;}
	.st8{fill:none;stroke:#ED2224;stroke-width:3;stroke-miterlimit:10;}
	.st9{fill:none;stroke:#ED2224;stroke-width:4;stroke-miterlimit:10;}
	.st10{fill:none;stroke:#ED2224;stroke-width:4;stroke-linecap:round;stroke-linejoin:round;stroke-miterlimit:10;}
	.st11{stroke:#000000;stroke-width:0.25;stroke-miterlimit:10;}
	.st12{fill:none;stroke:#000000;stroke-width:6;stroke-miterlimit:10;}
	.st13{fill:none;stroke:#0099CC;stroke-width:6;stroke-miterlimit:10;}
	.st14{fill:#0099CC;}
	.st15{fill:none;stroke:#0099CC;stroke-width:4;stroke-miterlimit:10;}
	.st16{fill:none;stroke:#009933;stroke-width:6;stroke-miterlimit:10;}
	.st17{fill:none;stroke:#009933;stroke-width:4;stroke-miterlimit:10;}
</style>
<g id="shadow">
	<g>
		<g>
			<path class="st5" d="M103,43.3c-8.2,10.1-20,18-33.5,22l-5.7,1.6"/>
			<g>
				<polygon class="st1" points="96.6,43.3 101.9,44.6 104.7,49.3 107.7,36.6 				"/>
			</g>
		</g>
	</g>
	<path id="XMLID_614_" class="st5" d="M50.6,53.7H4.7v19.7h45.9l14.9-10.1L50.6,53.7z"/>
	<line id="XMLID_613_" class="st5" x1="7.2" y1="75.4" x2="53.1" y2="53"/>
	<line id="XMLID_612_" class="st5" x1="7.2" y1="51.7" x2="53.1" y2="74.1"/>
	<polygon class="st5" points="153.8,47.9 121.1,47.9 108.5,37.2 121.1,26.6 153.8,26.6 166.4,37.2 	"/>
	<line class="st5" x1="113.3" y1="33.1" x2="130.8" y2="47.9"/>
	<line class="st5" x1="118.2" y1="29" x2="140.5" y2="47.9"/>
	<line class="st5" x1="125.2" y1="26.6" x2="150.4" y2="47.9"/>
	<line class="st5" x1="134.7" y1="26.6" x2="156.9" y2="45.3"/>
	<line class="st5" x1="144.4" y1="26.6" x2="161.7" y2="41.2"/>
</g>
<g id="main">
	<polygon class="st15" points="153.8,45.9 121.1,45.9 108.5,35.2 121.1,24.6 153.8,24.6 166.4,35.2 	"/>
	<line class="st15" x1="113.3" y1="31" x2="130.8" y2="45.9"/>
	<line class="st15" x1="118.2" y1="27" x2="140.5" y2="45.9"/>
	<line class="st15" x1="125.2" y1="24.6" x2="150.4" y2="45.9"/>
	<line class="st15" x1="134.7" y1="24.6" x2="156.9" y2="43.3"/>
	<line class="st15" x1="144.4" y1="24.6" x2="161.7" y2="39.2"/>
	<line id="XMLID_611_" class="st17" x1="2.7" y1="75.4" x2="51.2" y2="51.7"/>
	<line id="XMLID_610_" class="st17" x1="2.7" y1="51.7" x2="51.2" y2="75.4"/>
	<path id="XMLID_609_" class="st9" d="M51.2,51.7H2.7v23.7h48.5l18-12.2L51.2,51.7z"/>
	<g>
		<g>
			<path class="st9" d="M102.5,40.7c-8.4,10.7-20,18.7-33.4,22.5"/>
			<g>
				<polygon class="st6" points="96.1,40.8 101.5,42 104.3,46.7 107.2,34.1 				"/>
			</g>
		</g>
	</g>
</g>
</svg>
