<?xml version="1.0" encoding="utf-8"?>
<!-- Generator: Adobe Illustrator 21.0.0, SVG Export Plug-In . SVG Version: 6.00 Build 0)  -->
<svg version="1.1" xmlns="http://www.w3.org/2000/svg" xmlns:xlink="http://www.w3.org/1999/xlink" x="0px" y="0px"
	 viewBox="0 0 140 100" style="enable-background:new 0 0 140 100;" xml:space="preserve">
<style type="text/css">
	.st0{fill:none;stroke:#C0BFBF;stroke-width:6;stroke-miterlimit:10;}
	.st1{fill:#C0BFBF;}
	.st2{fill:none;stroke:#C0BFBF;stroke-width:6;stroke-linecap:round;stroke-linejoin:round;stroke-miterlimit:10;}
	.st3{fill:none;stroke:#C0BFBF;stroke-width:5;stroke-miterlimit:10;}
	.st4{fill:none;stroke:#C0BFBF;stroke-width:3;stroke-miterlimit:10;}
	.st5{fill:none;stroke:#C0BFBF;stroke-width:4;stroke-miterlimit:10;}
	.st6{fill:#ED2224;}
	.st7{fill:none;stroke:#ED2224;stroke-width:6;stroke-miterlimit:10;}
	.st8{fill:none;stroke:#ED2224;stroke-width:3;stroke-miterlimit:10;}
	.st9{fill:none;stroke:#ED2224;stroke-width:4;stroke-miterlimit:10;}
	.st10{fill:none;stroke:#ED2224;stroke-width:4;stroke-linecap:round;stroke-linejoin:round;stroke-miterlimit:10;}
	.st11{font-family:'Arial-BoldMT';}
	.st12{font-size:18px;}
	.st13{stroke:#000000;stroke-width:0.25;stroke-miterlimit:10;}
	.st14{fill:none;stroke:#000000;stroke-width:6;stroke-miterlimit:10;}
	.st15{fill:none;stroke:#0099CC;stroke-width:6;stroke-miterlimit:10;}
	.st16{fill:#0099CC;}
	.st17{fill:none;stroke:#0099CC;stroke-width:4;stroke-miterlimit:10;}
	.st18{fill:none;stroke:#009933;stroke-width:6;stroke-miterlimit:10;}
	.st19{fill:none;stroke:#009933;stroke-width:4;stroke-miterlimit:10;}
</style>
<g id="shadow">
	<g id="XMLID_195_">
		<g>
			<polyline class="st4" points="71.1,32.6 75.4,23 80.4,25.2 84.5,16.5 			"/>
			<g>
				<polygon class="st1" points="86.7,20.7 84,17.6 79.9,17.5 87.1,11 				"/>
			</g>
		</g>
	</g>
	<g id="XMLID_507_">
		<g>
			<path class="st0" d="M16.9,50.2C8.3,46.6,4.2,36.7,7.7,28c3.6-8.7,13.5-12.8,22.2-9.2c1.3,0.5,2.5,1.2,3.5,2"/>
			<g>
				<polygon class="st1" points="24.4,23.5 31.4,19.3 33.3,11.3 43.3,28 				"/>
			</g>
		</g>
	</g>
	<line class="st0" x1="53" y1="51.5" x2="23" y2="51.5"/>
	<g id="XMLID_505_">
		<g>
			<path class="st0" d="M123.1,52.8c8.7,3.6,12.8,13.5,9.2,22.2s-13.5,12.8-22.2,9.2c-1.3-0.5-2.5-1.2-3.5-2"/>
			<g>
				<polygon class="st1" points="115.6,79.5 108.6,83.7 106.7,91.7 96.7,75 				"/>
			</g>
		</g>
	</g>
	<line class="st0" x1="87" y1="51.5" x2="117" y2="51.5"/>
	<circle id="XMLID_504_" class="st0" cx="70" cy="48.5" r="14"/>
</g>
<g id="main">
	<g id="XMLID_197_">
		<g>
			<polyline class="st8" points="70,31.5 74.3,21.9 79.3,24.1 83.4,15.3 			"/>
			<g>
				<polygon class="st6" points="85.6,19.6 82.9,16.5 78.7,16.3 86,9.8 				"/>
			</g>
		</g>
	</g>
	<g id="XMLID_502_">
		<g>
			<path class="st7" d="M16.9,47.2C8.3,43.6,4.2,33.7,7.7,25c3.6-8.7,13.5-12.8,22.2-9.2c1.3,0.5,2.5,1.2,3.5,2"/>
			<g>
				<polygon class="st6" points="24.4,20.5 31.4,16.3 33.3,8.3 43.3,25 				"/>
			</g>
		</g>
	</g>
	<line class="st7" x1="53" y1="48.5" x2="23" y2="48.5"/>
	<g id="XMLID_500_">
		<g>
			<path class="st7" d="M123.1,49.8c8.7,3.6,12.8,13.5,9.2,22.2s-13.5,12.8-22.2,9.2c-1.3-0.5-2.5-1.2-3.5-2"/>
			<g>
				<polygon class="st6" points="115.6,76.5 108.6,80.7 106.7,88.7 96.7,72 				"/>
			</g>
		</g>
	</g>
	<line class="st7" x1="87" y1="48.5" x2="117" y2="48.5"/>
	<circle id="XMLID_498_" class="st7" cx="70" cy="48.5" r="17"/>
</g>
</svg>
