<?xml version="1.0" encoding="utf-8"?>
<!-- Generator: Adobe Illustrator 21.0.0, SVG Export Plug-In . SVG Version: 6.00 Build 0)  -->
<svg version="1.1" xmlns="http://www.w3.org/2000/svg" xmlns:xlink="http://www.w3.org/1999/xlink" x="0px" y="0px"
	 viewBox="0 0 150 100" style="enable-background:new 0 0 150 100;" xml:space="preserve">
<style type="text/css">
	.st0{fill:none;stroke:#C0BFBF;stroke-width:6;stroke-miterlimit:10;}
	.st1{fill:none;stroke:#C0BFBF;stroke-width:4;stroke-miterlimit:10;}
	.st2{fill:#C0BFBF;}
	.st3{fill:none;stroke:#C0BFBF;stroke-width:3;stroke-miterlimit:10;}
	.st4{fill:none;stroke:#C0BFBF;stroke-width:2;stroke-miterlimit:10;}
	.st5{fill:none;stroke:#C0BFBF;stroke-width:4;stroke-miterlimit:10;stroke-dasharray:7.7795,7.7795;}
	.st6{fill:none;stroke:#C0BFBF;stroke-width:4;stroke-miterlimit:10;stroke-dasharray:6;}
	.st7{fill:none;stroke:#C0BFBF;stroke-width:1.5;stroke-miterlimit:10;}
	.st8{fill:none;stroke:#090707;stroke-width:4;stroke-miterlimit:10;}
	.st9{fill:none;stroke:#000000;stroke-width:6;stroke-miterlimit:10;}
	.st10{fill:none;stroke:#000000;stroke-width:4;stroke-miterlimit:10;}
	.st11{fill:none;stroke:#000000;stroke-width:5;stroke-miterlimit:10;}
	.st12{fill:none;stroke:#000000;stroke-width:3;stroke-miterlimit:10;}
	.st13{fill:none;stroke:#000000;stroke-width:2;stroke-miterlimit:10;}
	.st14{fill:none;stroke:#000000;stroke-width:4;stroke-miterlimit:10;stroke-dasharray:7.7795,7.7795;}
	.st15{fill:none;stroke:#000000;stroke-width:4;stroke-miterlimit:10;stroke-dasharray:6;}
	.st16{fill:none;stroke:#000000;stroke-width:1.5;stroke-miterlimit:10;}
	.st17{fill:none;stroke:#0099CC;stroke-width:4;stroke-miterlimit:10;}
	.st18{fill:none;stroke:#0099CC;stroke-width:2;stroke-miterlimit:10;}
	.st19{fill:#0099CC;}
	.st20{fill:none;stroke:#ED2224;stroke-width:4;stroke-miterlimit:10;}
	.st21{fill:none;stroke:#C36B44;stroke-width:4;stroke-miterlimit:10;}
	.st22{fill:none;stroke:#009933;stroke-width:2;stroke-miterlimit:10;}
	.st23{stroke:#000000;stroke-miterlimit:10;}
</style>
<g id="shadow">
	<path id="XMLID_937_" class="st1" d="M123.6,31.8H26.4C13.2,32.4,5,39.6,5,50s8.2,17.4,21.3,18.3h97.3"/>
	<path id="XMLID_936_" class="st1" d="M123.6,68.3C136.8,67.4,145,60.4,145,50s-8.2-17.6-21.3-18.2"/>
	<line id="XMLID_918_" class="st1" x1="20.8" y1="20.1" x2="20.8" y2="79.9"/>
	<line id="XMLID_917_" class="st1" x1="132.7" y1="20.1" x2="132.7" y2="79.9"/>
	<line id="XMLID_916_" class="st1" x1="30.2" y1="11.9" x2="30.2" y2="88.1"/>
	<line id="XMLID_915_" class="st1" x1="123.8" y1="11.9" x2="123.8" y2="88.1"/>
	<line id="XMLID_934_" class="st1" x1="44.1" y1="43.6" x2="105.9" y2="43.6"/>
	<polygon id="XMLID_933_" class="st1" points="93.9,60.8 56.1,60.8 51.2,43.6 98.8,43.6 	"/>
</g>
<g id="main">
	<line id="XMLID_887_" class="st10" x1="18.8" y1="20.1" x2="18.8" y2="79.9"/>
	<line id="XMLID_886_" class="st10" x1="130.6" y1="20.1" x2="130.6" y2="79.9"/>
	<path id="XMLID_756_" class="st10" d="M26.4,70.2c-13,0-23.5-9-23.5-20.2s10.5-20.2,23.5-20.2h97.3c13,0,23.5,9,23.5,20.2
		s-10.5,20.2-23.5,20.2H26.4z"/>
	<line id="XMLID_872_" class="st10" x1="44.1" y1="41.4" x2="105.9" y2="41.4"/>
	<polygon id="XMLID_757_" class="st10" points="93.9,58.6 56.1,58.6 51.2,41.4 98.8,41.4 	"/>
	<line id="XMLID_2418_" class="st17" x1="28.1" y1="11.9" x2="28.1" y2="88.1"/>
	<line id="XMLID_2417_" class="st17" x1="121.7" y1="11.9" x2="121.7" y2="88.1"/>
</g>
</svg>
