<?xml version="1.0" encoding="utf-8"?>
<!-- Generator: Adobe Illustrator 21.0.0, SVG Export Plug-In . SVG Version: 6.00 Build 0)  -->
<svg version="1.1" xmlns="http://www.w3.org/2000/svg" xmlns:xlink="http://www.w3.org/1999/xlink" x="0px" y="0px"
	 viewBox="0 0 150 100" style="enable-background:new 0 0 150 100;" xml:space="preserve">
<style type="text/css">
	.st0{fill:none;stroke:#C0BFBF;stroke-width:6;stroke-miterlimit:10;}
	.st1{fill:none;stroke:#C0BFBF;stroke-width:4;stroke-miterlimit:10;}
	.st2{fill:#C0BFBF;}
	.st3{fill:none;stroke:#C0BFBF;stroke-width:3;stroke-miterlimit:10;}
	.st4{fill:none;stroke:#C0BFBF;stroke-width:2;stroke-miterlimit:10;}
	.st5{fill:none;stroke:#C0BFBF;stroke-width:4;stroke-miterlimit:10;stroke-dasharray:7.7795,7.7795;}
	.st6{fill:none;stroke:#C0BFBF;stroke-width:4;stroke-miterlimit:10;stroke-dasharray:6;}
	.st7{fill:none;stroke:#C0BFBF;stroke-width:1.5;stroke-miterlimit:10;}
	.st8{fill:none;stroke:#090707;stroke-width:4;stroke-miterlimit:10;}
	.st9{fill:none;stroke:#000000;stroke-width:6;stroke-miterlimit:10;}
	.st10{fill:none;stroke:#000000;stroke-width:4;stroke-miterlimit:10;}
	.st11{fill:none;stroke:#000000;stroke-width:5;stroke-miterlimit:10;}
	.st12{fill:none;stroke:#000000;stroke-width:3;stroke-miterlimit:10;}
	.st13{fill:none;stroke:#000000;stroke-width:2;stroke-miterlimit:10;}
	.st14{fill:none;stroke:#000000;stroke-width:4;stroke-miterlimit:10;stroke-dasharray:7.7795,7.7795;}
	.st15{fill:none;stroke:#000000;stroke-width:4;stroke-miterlimit:10;stroke-dasharray:6;}
	.st16{fill:none;stroke:#000000;stroke-width:1.5;stroke-miterlimit:10;}
	.st17{fill:none;stroke:#0099CC;stroke-width:4;stroke-miterlimit:10;}
	.st18{fill:none;stroke:#0099CC;stroke-width:2;stroke-miterlimit:10;}
	.st19{fill:#0099CC;}
	.st20{fill:none;stroke:#ED2224;stroke-width:4;stroke-miterlimit:10;}
	.st21{fill:none;stroke:#C36B44;stroke-width:4;stroke-miterlimit:10;}
	.st22{fill:none;stroke:#009933;stroke-width:2;stroke-miterlimit:10;}
	.st23{stroke:#000000;stroke-miterlimit:10;}
</style>
<g id="shadow">
	<path id="XMLID_983_" class="st1" d="M123.6,32.8H26.4C13.2,33.4,5,40.6,5,51s8.2,17.4,21.3,18.3h97.3"/>
	<path id="XMLID_264_" class="st1" d="M123.6,69.3C136.8,68.4,145,61.4,145,51s-8.2-17.6-21.3-18.2"/>
	<line id="XMLID_262_" class="st1" x1="20.8" y1="21.1" x2="20.8" y2="80.9"/>
	<line id="XMLID_261_" class="st1" x1="132.7" y1="21.1" x2="132.7" y2="80.9"/>
	<line id="XMLID_257_" class="st1" x1="30.2" y1="12.9" x2="30.2" y2="89.2"/>
	<line id="XMLID_254_" class="st1" x1="123.8" y1="12.9" x2="123.8" y2="89.2"/>
	<rect id="XMLID_1044_" x="61.9" y="39.3" class="st1" width="38.1" height="23.6"/>
	<line id="XMLID_251_" class="st1" x1="100" y1="51.1" x2="52.4" y2="51.1"/>
	<line id="XMLID_248_" class="st1" x1="52.4" y1="43.6" x2="52.4" y2="58.6"/>
</g>
<g id="main">
	<line id="XMLID_989_" class="st10" x1="18.8" y1="21.1" x2="18.8" y2="80.9"/>
	<line id="XMLID_988_" class="st10" x1="130.6" y1="21.1" x2="130.6" y2="80.9"/>
	<path id="XMLID_985_" class="st10" d="M26.4,71.2c-13,0-23.5-9-23.5-20.2s10.5-20.2,23.5-20.2h97.3c13,0,23.5,9,23.5,20.2
		s-10.5,20.2-23.5,20.2H26.4z"/>
	<rect id="XMLID_982_" x="59.9" y="39.2" class="st10" width="38.1" height="23.6"/>
	<line id="XMLID_195_" class="st10" x1="98" y1="51" x2="50.3" y2="51"/>
	<line id="XMLID_197_" class="st10" x1="50.3" y1="43.5" x2="50.3" y2="58.5"/>
	<line id="XMLID_2416_" class="st17" x1="28.1" y1="12.9" x2="28.1" y2="89.1"/>
	<line id="XMLID_2415_" class="st17" x1="121.7" y1="12.9" x2="121.7" y2="89.1"/>
</g>
</svg>
