<?xml version="1.0" encoding="utf-8"?>
<!-- Generator: Adobe Illustrator 21.0.0, SVG Export Plug-In . SVG Version: 6.00 Build 0)  -->
<svg version="1.1" xmlns="http://www.w3.org/2000/svg" xmlns:xlink="http://www.w3.org/1999/xlink" x="0px" y="0px"
	 viewBox="0 0 100 100" style="enable-background:new 0 0 100 100;" xml:space="preserve">
<style type="text/css">
	.st0{fill:none;stroke:#C0BFBF;stroke-width:6;stroke-miterlimit:10;}
	.st1{fill:none;stroke:#C0BFBF;stroke-width:4;stroke-miterlimit:10;}
	.st2{fill:#C0BFBF;}
	.st3{fill:none;stroke:#C0BFBF;stroke-width:3;stroke-miterlimit:10;}
	.st4{fill:none;stroke:#C0BFBF;stroke-width:2;stroke-miterlimit:10;}
	.st5{fill:none;stroke:#C0BFBF;stroke-width:4;stroke-miterlimit:10;stroke-dasharray:7.7795,7.7795;}
	.st6{fill:none;stroke:#C0BFBF;stroke-width:4;stroke-miterlimit:10;stroke-dasharray:6;}
	.st7{fill:none;stroke:#C0BFBF;stroke-width:1.5;stroke-miterlimit:10;}
	.st8{fill:none;stroke:#090707;stroke-width:4;stroke-miterlimit:10;}
	.st9{fill:none;stroke:#000000;stroke-width:6;stroke-miterlimit:10;}
	.st10{fill:none;stroke:#000000;stroke-width:4;stroke-miterlimit:10;}
	.st11{fill:none;stroke:#000000;stroke-width:5;stroke-miterlimit:10;}
	.st12{fill:none;stroke:#000000;stroke-width:3;stroke-miterlimit:10;}
	.st13{fill:none;stroke:#000000;stroke-width:2;stroke-miterlimit:10;}
	.st14{fill:none;stroke:#000000;stroke-width:4;stroke-miterlimit:10;stroke-dasharray:7.7795,7.7795;}
	.st15{fill:none;stroke:#000000;stroke-width:4;stroke-miterlimit:10;stroke-dasharray:6;}
	.st16{fill:none;stroke:#000000;stroke-width:1.5;stroke-miterlimit:10;}
	.st17{fill:none;stroke:#0099CC;stroke-width:4;stroke-miterlimit:10;}
	.st18{fill:none;stroke:#0099CC;stroke-width:2;stroke-miterlimit:10;}
	.st19{fill:#0099CC;}
	.st20{fill:none;stroke:#ED2224;stroke-width:4;stroke-miterlimit:10;}
	.st21{fill:none;stroke:#C36B44;stroke-width:4;stroke-miterlimit:10;}
	.st22{fill:none;stroke:#009933;stroke-width:2;stroke-miterlimit:10;}
	.st23{stroke:#000000;stroke-miterlimit:10;}
</style>
<g id="shadow">
	<path id="XMLID_1680_" class="st0" d="M48.6,13.4c0,0,8.3,11.1,22.1,6.9l-5,15.6c0,0-7.9-0.1-10.9,9.7c0,0-2.2,7.7,3.8,13
		l-7.6,24.4c0,0-4.5,7.9-15.1,9c0,0-7.3-5.7-7.1-16.2l7.7-24.4c0,0,7.2,0.6,10.7-8.6c0,0,2.9-9.1-3.4-13.9L48.6,13.4z"/>
</g>
<g id="main">
	<path id="XMLID_2280_" class="st9" d="M39.2,33.3L49,2.2"/>
	<path id="XMLID_2279_" class="st9" d="M76.8,11l-9.9,31.1"/>
	<path id="XMLID_2278_" class="st9" d="M44.4,41.4c-1.6,5.1-6.1,8.3-10.1,7"/>
	<path id="XMLID_2277_" class="st9" d="M40,30.5c4,1.2,5.9,6.4,4.2,11.5"/>
	<path id="XMLID_2276_" class="st9" d="M57.9,45.7c-1.6,5.1,0.3,10.3,4.2,11.6"/>
	<path id="XMLID_2275_" class="st9" d="M67.9,39.3c-4-1.3-8.5,1.8-10.2,7"/>
	<path id="XMLID_2274_" class="st9" d="M35.8,95.6c-11.5-8-10-20.3-10-20.3l9.4-29.8"/>
	<path id="XMLID_2273_" class="st9" d="M63,54.4l-9.4,29.8c0,0-5.8,11-19.7,10.9"/>
	<path id="XMLID_2272_" class="st9" d="M76.8,11c-1.9,6-9.8,8.9-17.7,6.4"/>
	<path id="XMLID_2271_" class="st9" d="M49,2.2c-1.9,6,2.9,12.9,10.7,15.4"/>
</g>
</svg>
