<?xml version="1.0" encoding="utf-8"?>
<!-- Generator: Adobe Illustrator 21.0.0, SVG Export Plug-In . SVG Version: 6.00 Build 0)  -->
<svg version="1.1" xmlns="http://www.w3.org/2000/svg" xmlns:xlink="http://www.w3.org/1999/xlink" x="0px" y="0px"
	 viewBox="0 0 100 100" style="enable-background:new 0 0 100 100;" xml:space="preserve">
<style type="text/css">
	.st0{fill:none;stroke:#C0BFBF;stroke-width:6;stroke-miterlimit:10;}
	.st1{fill:none;stroke:#C0BFBF;stroke-width:4;stroke-miterlimit:10;}
	.st2{fill:#C0BFBF;}
	.st3{fill:none;stroke:#C0BFBF;stroke-width:3;stroke-miterlimit:10;}
	.st4{fill:none;stroke:#C0BFBF;stroke-width:2;stroke-miterlimit:10;}
	.st5{fill:none;stroke:#C0BFBF;stroke-width:4;stroke-miterlimit:10;stroke-dasharray:7.7795,7.7795;}
	.st6{fill:none;stroke:#C0BFBF;stroke-width:4;stroke-miterlimit:10;stroke-dasharray:6;}
	.st7{fill:none;stroke:#C0BFBF;stroke-width:1.5;stroke-miterlimit:10;}
	.st8{fill:none;stroke:#090707;stroke-width:4;stroke-miterlimit:10;}
	.st9{fill:none;stroke:#000000;stroke-width:6;stroke-miterlimit:10;}
	.st10{fill:none;stroke:#000000;stroke-width:4;stroke-miterlimit:10;}
	.st11{fill:none;stroke:#000000;stroke-width:5;stroke-miterlimit:10;}
	.st12{fill:none;stroke:#000000;stroke-width:3;stroke-miterlimit:10;}
	.st13{fill:none;stroke:#000000;stroke-width:2;stroke-miterlimit:10;}
	.st14{fill:none;stroke:#000000;stroke-width:4;stroke-miterlimit:10;stroke-dasharray:7.7795,7.7795;}
	.st15{fill:none;stroke:#000000;stroke-width:4;stroke-miterlimit:10;stroke-dasharray:6;}
	.st16{fill:none;stroke:#000000;stroke-width:1.5;stroke-miterlimit:10;}
	.st17{fill:none;stroke:#0099CC;stroke-width:4;stroke-miterlimit:10;}
	.st18{fill:none;stroke:#0099CC;stroke-width:2;stroke-miterlimit:10;}
	.st19{fill:#0099CC;}
	.st20{fill:none;stroke:#ED2224;stroke-width:4;stroke-miterlimit:10;}
	.st21{fill:none;stroke:#C36B44;stroke-width:4;stroke-miterlimit:10;}
	.st22{fill:none;stroke:#009933;stroke-width:2;stroke-miterlimit:10;}
	.st23{stroke:#000000;stroke-miterlimit:10;}
</style>
<g id="shadow">
	<path id="XMLID_512_" class="st0" d="M12.9,28.6v47.1c0,0,41.6,1.6,73.2-19.5C86.1,56.2,63.1,30.5,12.9,28.6z"/>
	<line id="XMLID_511_" class="st3" x1="48.5" y1="34.6" x2="78.3" y2="60.9"/>
	<line id="XMLID_510_" class="st3" x1="27" y1="29.8" x2="68.6" y2="65.5"/>
	<line id="XMLID_509_" class="st3" x1="13.2" y1="32.3" x2="58.4" y2="69.1"/>
	<line id="XMLID_508_" class="st3" x1="13.2" y1="44.3" x2="47.8" y2="72"/>
	<line id="XMLID_507_" class="st3" x1="12.9" y1="56.5" x2="35.8" y2="74.5"/>
	<line id="XMLID_506_" class="st3" x1="13.2" y1="69.1" x2="21.2" y2="75.6"/>
	<line id="XMLID_584_" class="st3" x1="55.3" y1="33.2" x2="55.3" y2="73.6"/>
</g>
<g id="main">
	<path id="XMLID_363_" class="st9" d="M10.2,25.7v53c1.4,0,3,0,4.4,0c29.8,0,56.8-8.3,76.3-22C74,38.3,44.3,25.9,10.2,25.7z"/>
	<line id="XMLID_356_" class="st12" x1="10.2" y1="64.8" x2="27.1" y2="78.4"/>
	<line id="XMLID_355_" class="st12" x1="10.2" y1="52.3" x2="41.2" y2="76.6"/>
	<line id="XMLID_354_" class="st12" x1="10.2" y1="39.9" x2="52.9" y2="74"/>
	<line id="XMLID_353_" class="st12" x1="10.2" y1="27.9" x2="63.1" y2="71"/>
	<line id="XMLID_351_" class="st12" x1="27.1" y1="27.9" x2="72.8" y2="67.1"/>
	<line id="XMLID_350_" class="st12" x1="46.9" y1="31.1" x2="82.2" y2="62.3"/>
	<line id="XMLID_377_" class="st12" x1="53.8" y1="33.2" x2="53.8" y2="73.6"/>
</g>
</svg>
