<?xml version="1.0" encoding="utf-8"?>
<!-- Generator: Adobe Illustrator 21.0.0, SVG Export Plug-In . SVG Version: 6.00 Build 0)  -->
<svg version="1.1" xmlns="http://www.w3.org/2000/svg" xmlns:xlink="http://www.w3.org/1999/xlink" x="0px" y="0px"
	 viewBox="0 0 100 100" style="enable-background:new 0 0 100 100;" xml:space="preserve">
<style type="text/css">
	.st0{fill:none;stroke:#C0BFBF;stroke-width:6;stroke-miterlimit:10;}
	.st1{fill:none;stroke:#C0BFBF;stroke-width:4;stroke-miterlimit:10;}
	.st2{fill:#C0BFBF;}
	.st3{fill:none;stroke:#C0BFBF;stroke-width:3;stroke-miterlimit:10;}
	.st4{fill:none;stroke:#C0BFBF;stroke-width:2;stroke-miterlimit:10;}
	.st5{fill:none;stroke:#C0BFBF;stroke-width:4;stroke-miterlimit:10;stroke-dasharray:7.7795,7.7795;}
	.st6{fill:none;stroke:#C0BFBF;stroke-width:4;stroke-miterlimit:10;stroke-dasharray:6;}
	.st7{fill:none;stroke:#C0BFBF;stroke-width:1.5;stroke-miterlimit:10;}
	.st8{fill:none;stroke:#090707;stroke-width:4;stroke-miterlimit:10;}
	.st9{fill:none;stroke:#000000;stroke-width:6;stroke-miterlimit:10;}
	.st10{fill:none;stroke:#000000;stroke-width:4;stroke-miterlimit:10;}
	.st11{fill:none;stroke:#000000;stroke-width:5;stroke-miterlimit:10;}
	.st12{fill:none;stroke:#000000;stroke-width:3;stroke-miterlimit:10;}
	.st13{fill:none;stroke:#000000;stroke-width:2;stroke-miterlimit:10;}
	.st14{fill:none;stroke:#000000;stroke-width:4;stroke-miterlimit:10;stroke-dasharray:7.7795,7.7795;}
	.st15{fill:none;stroke:#000000;stroke-width:4;stroke-miterlimit:10;stroke-dasharray:6;}
	.st16{fill:none;stroke:#000000;stroke-width:1.5;stroke-miterlimit:10;}
	.st17{fill:none;stroke:#0099CC;stroke-width:4;stroke-miterlimit:10;}
	.st18{fill:none;stroke:#0099CC;stroke-width:2;stroke-miterlimit:10;}
	.st19{fill:#0099CC;}
	.st20{fill:none;stroke:#ED2224;stroke-width:4;stroke-miterlimit:10;}
	.st21{fill:none;stroke:#C36B44;stroke-width:4;stroke-miterlimit:10;}
	.st22{fill:none;stroke:#009933;stroke-width:2;stroke-miterlimit:10;}
	.st23{stroke:#000000;stroke-miterlimit:10;}
</style>
<g id="shadow">
	<line id="XMLID_566_" class="st1" x1="2.6" y1="22.8" x2="98.7" y2="22.8"/>
	<line id="XMLID_552_" class="st1" x1="2.6" y1="73.7" x2="98.7" y2="73.7"/>
	<line id="XMLID_537_" class="st4" x1="86.7" y1="18.5" x2="95.2" y2="27"/>
	<line id="XMLID_504_" class="st4" x1="95.2" y1="18.5" x2="86.7" y2="27"/>
	<line id="XMLID_503_" class="st4" x1="86.7" y1="69.4" x2="95.2" y2="77.9"/>
	<line id="XMLID_502_" class="st4" x1="95.2" y1="69.4" x2="86.7" y2="77.9"/>
	<line id="XMLID_501_" class="st4" x1="4.4" y1="18.5" x2="12.9" y2="27"/>
	<line id="XMLID_500_" class="st4" x1="12.9" y1="18.5" x2="4.4" y2="27"/>
	<line id="XMLID_499_" class="st4" x1="4.4" y1="69.4" x2="12.9" y2="77.9"/>
	<line id="XMLID_498_" class="st4" x1="12.9" y1="69.4" x2="4.4" y2="77.9"/>
	<line id="XMLID_497_" class="st1" x1="87.7" y1="95.3" x2="71.1" y2="7"/>
	<line id="XMLID_496_" class="st4" x1="67.5" y1="11" x2="77.5" y2="17.6"/>
	<line id="XMLID_495_" class="st4" x1="75.8" y1="9.3" x2="69.2" y2="19.3"/>
	<line id="XMLID_494_" class="st4" x1="73.3" y1="42" x2="83.4" y2="48.6"/>
	<line id="XMLID_493_" class="st4" x1="81.6" y1="40.3" x2="75" y2="50.3"/>
	<line id="XMLID_490_" class="st4" x1="81" y1="82.7" x2="90.9" y2="89.2"/>
	<line id="XMLID_489_" class="st4" x1="89.3" y1="80.9" x2="82.6" y2="91"/>
	<line id="XMLID_488_" class="st1" x1="36.8" y1="95.3" x2="20.2" y2="7"/>
	<line id="XMLID_487_" class="st4" x1="16.6" y1="11" x2="26.6" y2="17.6"/>
	<line id="XMLID_486_" class="st4" x1="24.9" y1="9.3" x2="18.3" y2="19.3"/>
	<line id="XMLID_485_" class="st4" x1="22.4" y1="42" x2="32.4" y2="48.6"/>
	<line id="XMLID_484_" class="st4" x1="30.7" y1="40.3" x2="24.1" y2="50.3"/>
	<line id="XMLID_483_" class="st4" x1="30.1" y1="82.7" x2="40.1" y2="89.2"/>
	<line id="XMLID_481_" class="st4" x1="38.4" y1="80.9" x2="31.8" y2="91"/>
</g>
<g id="main">
	<line id="XMLID_2338_" class="st10" x1="0.8" y1="22.8" x2="96.9" y2="22.8"/>
	<line id="XMLID_2337_" class="st10" x1="0.8" y1="73.7" x2="96.9" y2="73.7"/>
	<line id="XMLID_2336_" class="st13" x1="84.9" y1="18.5" x2="93.4" y2="27"/>
	<line id="XMLID_2335_" class="st13" x1="93.4" y1="18.5" x2="84.9" y2="27"/>
	<line id="XMLID_2334_" class="st13" x1="84.9" y1="69.4" x2="93.4" y2="77.9"/>
	<line id="XMLID_2333_" class="st13" x1="93.4" y1="69.4" x2="84.9" y2="77.9"/>
	<line id="XMLID_2332_" class="st13" x1="2.6" y1="18.5" x2="11.1" y2="27"/>
	<line id="XMLID_2331_" class="st13" x1="11.1" y1="18.5" x2="2.6" y2="27"/>
	<line id="XMLID_2330_" class="st13" x1="2.6" y1="69.4" x2="11.1" y2="77.9"/>
	<line id="XMLID_2329_" class="st13" x1="11.1" y1="69.4" x2="2.6" y2="77.9"/>
	<line id="XMLID_2328_" class="st10" x1="85.9" y1="95.3" x2="69.3" y2="7"/>
	<line id="XMLID_2327_" class="st13" x1="65.7" y1="11" x2="75.7" y2="17.6"/>
	<line id="XMLID_2326_" class="st13" x1="74" y1="9.3" x2="67.4" y2="19.3"/>
	<line id="XMLID_2325_" class="st13" x1="71.5" y1="42" x2="81.5" y2="48.6"/>
	<line id="XMLID_2324_" class="st13" x1="79.8" y1="40.3" x2="73.1" y2="50.3"/>
	<line id="XMLID_2323_" class="st13" x1="79.2" y1="82.7" x2="89.1" y2="89.2"/>
	<line id="XMLID_2322_" class="st13" x1="87.5" y1="80.9" x2="80.8" y2="91"/>
	<line id="XMLID_2321_" class="st10" x1="35" y1="95.3" x2="18.4" y2="7"/>
	<line id="XMLID_2320_" class="st13" x1="14.7" y1="11" x2="24.8" y2="17.6"/>
	<line id="XMLID_2319_" class="st13" x1="23.1" y1="9.3" x2="16.5" y2="19.3"/>
	<line id="XMLID_2318_" class="st13" x1="20.6" y1="42" x2="30.6" y2="48.6"/>
	<line id="XMLID_2317_" class="st13" x1="28.9" y1="40.3" x2="22.3" y2="50.3"/>
	<line id="XMLID_2316_" class="st13" x1="28.2" y1="82.7" x2="38.3" y2="89.2"/>
	<line id="XMLID_2315_" class="st13" x1="36.5" y1="80.9" x2="30" y2="91"/>
</g>
</svg>
