<?xml version="1.0" encoding="utf-8"?>
<!-- Generator: Adobe Illustrator 21.0.0, SVG Export Plug-In . SVG Version: 6.00 Build 0)  -->
<svg version="1.1" xmlns="http://www.w3.org/2000/svg" xmlns:xlink="http://www.w3.org/1999/xlink" x="0px" y="0px"
	 viewBox="0 0 120 100" style="enable-background:new 0 0 120 100;" xml:space="preserve">
<style type="text/css">
	.st0{fill:none;stroke:#C0BFBF;stroke-width:6;stroke-miterlimit:10;}
	.st1{fill:none;stroke:#C0BFBF;stroke-width:4;stroke-miterlimit:10;}
	.st2{fill:#C0BFBF;}
	.st3{fill:none;stroke:#C0BFBF;stroke-width:3;stroke-miterlimit:10;}
	.st4{fill:none;stroke:#C0BFBF;stroke-width:2;stroke-miterlimit:10;}
	.st5{fill:none;stroke:#C0BFBF;stroke-width:4;stroke-miterlimit:10;stroke-dasharray:7.7795,7.7795;}
	.st6{fill:none;stroke:#C0BFBF;stroke-width:4;stroke-miterlimit:10;stroke-dasharray:6;}
	.st7{fill:none;stroke:#C0BFBF;stroke-width:1.5;stroke-miterlimit:10;}
	.st8{fill:none;stroke:#090707;stroke-width:4;stroke-miterlimit:10;}
	.st9{fill:none;stroke:#000000;stroke-width:6;stroke-miterlimit:10;}
	.st10{fill:none;stroke:#000000;stroke-width:4;stroke-miterlimit:10;}
	.st11{fill:none;stroke:#000000;stroke-width:5;stroke-miterlimit:10;}
	.st12{fill:none;stroke:#000000;stroke-width:3;stroke-miterlimit:10;}
	.st13{fill:none;stroke:#000000;stroke-width:2;stroke-miterlimit:10;}
	.st14{fill:none;stroke:#000000;stroke-width:4;stroke-miterlimit:10;stroke-dasharray:7.7795,7.7795;}
	.st15{fill:none;stroke:#000000;stroke-width:4;stroke-miterlimit:10;stroke-dasharray:6;}
	.st16{fill:none;stroke:#000000;stroke-width:1.5;stroke-miterlimit:10;}
	.st17{fill:none;stroke:#0099CC;stroke-width:4;stroke-miterlimit:10;}
	.st18{fill:none;stroke:#0099CC;stroke-width:2;stroke-miterlimit:10;}
	.st19{fill:#0099CC;}
	.st20{fill:none;stroke:#ED2224;stroke-width:4;stroke-miterlimit:10;}
	.st21{fill:none;stroke:#C36B44;stroke-width:4;stroke-miterlimit:10;}
	.st22{fill:none;stroke:#009933;stroke-width:2;stroke-miterlimit:10;}
	.st23{stroke:#000000;stroke-miterlimit:10;}
</style>
<g id="shadow">
	<line id="XMLID_2223_" class="st4" x1="25.8" y1="30.1" x2="12.5" y2="44.5"/>
	<line id="XMLID_2222_" class="st4" x1="38.8" y1="30.5" x2="12.1" y2="65.8"/>
	<line id="XMLID_2221_" class="st4" x1="55.1" y1="30.9" x2="23" y2="74"/>
	<line id="XMLID_2220_" class="st4" x1="71.9" y1="30.9" x2="39.8" y2="74"/>
	<line id="XMLID_2219_" class="st4" x1="88.6" y1="30.9" x2="56.6" y2="74"/>
	<line id="XMLID_2218_" class="st4" x1="104.9" y1="30.9" x2="72.9" y2="74"/>
	<line id="XMLID_2217_" class="st4" x1="112.3" y1="43" x2="89.3" y2="74"/>
	<line id="XMLID_2216_" class="st4" x1="111.3" y1="64.1" x2="102.9" y2="74.8"/>
	<line id="XMLID_2215_" class="st4" x1="99.1" y1="30.1" x2="112.4" y2="44.6"/>
	<line id="XMLID_2214_" class="st4" x1="86.3" y1="30.7" x2="112.8" y2="65.9"/>
	<line id="XMLID_2213_" class="st4" x1="69.9" y1="31" x2="102" y2="74.2"/>
	<line id="XMLID_2212_" class="st4" x1="53.2" y1="31" x2="85.2" y2="74.2"/>
	<line id="XMLID_2211_" class="st4" x1="36.4" y1="31" x2="68.5" y2="74.2"/>
	<line id="XMLID_2210_" class="st4" x1="20.1" y1="31" x2="52.1" y2="74.2"/>
	<line id="XMLID_2209_" class="st4" x1="12.7" y1="43.1" x2="35.8" y2="74.2"/>
	<line id="XMLID_2208_" class="st4" x1="13.7" y1="64.2" x2="22.1" y2="74.9"/>
	<rect id="XMLID_1365_" x="12.2" y="32" class="st1" width="97.8" height="40.9"/>
</g>
<g id="main">
	<line id="XMLID_1287_" class="st13" x1="24.4" y1="30.1" x2="11.1" y2="44.4"/>
	<line id="XMLID_1286_" class="st13" x1="37.4" y1="30.5" x2="10.6" y2="65.7"/>
	<line id="XMLID_1285_" class="st13" x1="53.8" y1="30.8" x2="21.6" y2="74"/>
	<line id="XMLID_1284_" class="st13" x1="70.6" y1="30.8" x2="38.4" y2="74"/>
	<line id="XMLID_1283_" class="st13" x1="87.5" y1="30.8" x2="55.3" y2="74"/>
	<line id="XMLID_1282_" class="st13" x1="103.9" y1="30.8" x2="71.7" y2="74"/>
	<line id="XMLID_1281_" class="st13" x1="111.2" y1="42.9" x2="88.1" y2="74"/>
	<line id="XMLID_1275_" class="st13" x1="110.3" y1="64" x2="101.8" y2="74.7"/>
	<line id="XMLID_1274_" class="st13" x1="98" y1="30.1" x2="111.4" y2="44.5"/>
	<line id="XMLID_1248_" class="st13" x1="85.1" y1="30.6" x2="111.8" y2="65.9"/>
	<line id="XMLID_1243_" class="st13" x1="68.7" y1="30.9" x2="100.9" y2="74.1"/>
	<line id="XMLID_1225_" class="st13" x1="51.9" y1="30.9" x2="84" y2="74.1"/>
	<line id="XMLID_1210_" class="st13" x1="35.1" y1="30.9" x2="67.2" y2="74.1"/>
	<line id="XMLID_1209_" class="st13" x1="18.7" y1="30.9" x2="50.8" y2="74.1"/>
	<line id="XMLID_1208_" class="st13" x1="11.2" y1="43" x2="34.4" y2="74.1"/>
	<line id="XMLID_1207_" class="st13" x1="12.3" y1="64.1" x2="20.7" y2="74.9"/>
	<rect id="XMLID_2204_" x="10.2" y="30.1" class="st10" width="101.6" height="44.8"/>
</g>
</svg>
