<?xml version='1.0' encoding='utf-8'?>
<!DOCTYPE svg PUBLIC '-//W3C//DTD SVG 1.1//EN' 'http://www.w3.org/Graphics/SVG/1.1/DTD/svg11.dtd'>
<!-- Generator: Adobe Illustrator 17.0.0, SVG Export Plug-In . SVG Version: 6.00 Build 0)  -->
<svg id="Layer_1" xmlns="http://www.w3.org/2000/svg" x="0px" version="1.1" y="0px" width="160px" viewBox="-25 5 160 100" xml:space="preserve" xmlns:xlink="http://www.w3.org/1999/xlink" height="100px" enable-background="new -25 5 160 100">
 <g>
  <g id="draw">
   <g id="shadow">
    <polygon points="16.114,35.594 4.074,56.234 28.154,56.234 &#xd;&#xa;&#x9;&#x9;&#x9;&#x9;" fill="none" stroke="#BFBFBF" stroke-miterlimit="10" stroke-width="4"/>
    <polygon points="52.937,59.61 40.897,80.25 64.977,80.25 &#x9;&#xd;&#xa;&#x9;&#x9;&#x9;" fill="none" stroke="#BFBFBF" stroke-miterlimit="10" stroke-width="4"/>
    <polygon points="95.799,41.082 83.759,61.722 &#xd;&#xa;&#x9;&#x9;&#x9;107.839,61.722 &#x9;" fill="none" stroke="#BFBFBF" stroke-miterlimit="10" stroke-width="4"/>
    <path fill="none" d="M116.164,76.345&#xd;&#xa;&#x9;&#x9;&#x9;c-5.729,6.218-25.054,20.171-61.832,20.171c-0.021,0-0.04-0.002-0.061-0.002c-0.021,0-0.04,0.002-0.061,0.002&#xd;&#xa;&#x9;&#x9;&#x9;c-36.778,0-53.918-13.67-59.893-19.651c-5.375-5.381-13.042-16.347-13.042-24.964c0-16.177,10.97-38.083,33.25-38.083&#xd;&#xa;&#x9;&#x9;&#x9;c18.638,0,21.5,20.042,39.746,20.042c13.959,0,23.72-10.208,39.342-10.208c22.28,0,35.412,9.917,35.412,28.758&#xd;&#xa;&#x9;&#x9;&#x9;C129.025,61.025,120.359,71.793,116.164,76.345z" stroke="#BFBFBF" stroke-miterlimit="10" stroke-width="4"/>
   </g>
   <g id="main">
    <polygon points="16.114,28.635 -2.297,60.197 &#xd;&#xa;&#x9;&#x9;&#x9;&#x9;34.525,60.197 &#x9;" fill="none" stroke="#000000" stroke-miterlimit="10" stroke-width="4"/>
    <polygon points="52.937,52.651 34.525,84.213 &#xd;&#xa;&#x9;&#x9;&#x9;&#x9;71.348,84.213 &#x9;" fill="none" stroke="#000000" stroke-miterlimit="10" stroke-width="4"/>
    <polygon points="95.799,34.123 77.387,65.685 &#xd;&#xa;&#x9;&#x9;&#x9;&#x9;114.21,65.685 &#x9;" fill="none" stroke="#000000" stroke-miterlimit="10" stroke-width="4"/>
    <path fill="none" d="M120.36,77.706&#xd;&#xa;&#x9;&#x9;&#x9;&#x9;c-6.527,7.085-23.386,22.391-65.291,22.391c-0.024,0-0.046-0.002-0.07-0.002s-0.046,0.002-0.07,0.002&#xd;&#xa;&#x9;&#x9;&#x9;&#x9;c-41.905,0-58.763-15.306-65.291-22.391c-4.779-5.187-12.252-15.596-12.252-25.415c0-20.654,13.152-42.387,38.539-42.387&#xd;&#xa;&#x9;&#x9;&#x9;&#x9;c17.801,0,22.281,20,39.074,20c15.906,0,21.273-10,39.074-10c25.387,0,38.539,11.733,38.539,32.387&#xd;&#xa;&#x9;&#x9;&#x9;&#x9;C132.613,62.109,125.14,72.518,120.36,77.706z" stroke="#000000" stroke-miterlimit="10" stroke-width="4"/>
   </g>
  </g>
  <text fill="#231f20" font-size="12" fill-capacity="0" font-family="'Roboto-Medium'" stroke-capacity="0" transform="matrix(1 0 0 1 12.704 52.6507)"></text>
  <text fill="#231f20" font-size="12" fill-capacity="0" font-family="'Roboto-Medium'" stroke-capacity="0" transform="matrix(1 0 0 1 92.3886 58.1382)"></text>
  <text fill="#231f20" font-size="12" fill-capacity="0" font-family="'Roboto-Medium'" stroke-capacity="0" transform="matrix(1 0 0 1 49.5266 76.6663)"></text>
 </g>
</svg>
