<?xml version="1.0" encoding="utf-8"?>
<!-- Generator: Adobe Illustrator 21.0.0, SVG Export Plug-In . SVG Version: 6.00 Build 0)  -->
<svg version="1.1" xmlns="http://www.w3.org/2000/svg" xmlns:xlink="http://www.w3.org/1999/xlink" x="0px" y="0px"
	 viewBox="0 0 120 165.1" style="enable-background:new 0 0 120 165.1;" xml:space="preserve">
<style type="text/css">
	.st0{fill:none;stroke:#C0BFBF;stroke-width:5;stroke-miterlimit:10;}
	.st1{fill:none;stroke:#C0BFBF;stroke-width:6;stroke-miterlimit:10;}
	.st2{fill:none;stroke:#C0BFBF;stroke-width:4;stroke-miterlimit:10;}
	.st3{fill:none;stroke:#C0BFBF;stroke-width:6;stroke-linejoin:bevel;stroke-miterlimit:10;}
	.st4{fill:none;stroke:#C0BFBF;stroke-width:4;stroke-linejoin:bevel;stroke-miterlimit:10;}
	.st5{fill:none;stroke:#C0BFBF;stroke-width:3;stroke-miterlimit:10;}
	.st6{fill:none;stroke:#C0BFBF;stroke-width:6;stroke-linecap:round;stroke-miterlimit:10;}
	.st7{fill:#C0BFBF;}
	.st8{fill:none;stroke:#ED2224;stroke-width:6;stroke-miterlimit:10;}
	.st9{fill:none;stroke:#ED2224;stroke-width:5;stroke-linejoin:round;stroke-miterlimit:10;}
	.st10{fill:none;stroke:#ED2224;stroke-width:4;stroke-miterlimit:10;}
	.st11{fill:none;stroke:#ED2224;stroke-width:5;stroke-miterlimit:10;}
	.st12{fill:none;stroke:#ED2224;stroke-width:4;stroke-linejoin:round;stroke-miterlimit:10;}
	.st13{fill:none;stroke:#ED2224;stroke-width:6;stroke-linejoin:round;stroke-miterlimit:10;}
	.st14{fill:none;stroke:#ED2224;stroke-width:3;stroke-linejoin:round;stroke-miterlimit:10;}
	.st15{fill:none;stroke:#ED2224;stroke-width:6;stroke-linecap:round;stroke-miterlimit:10;}
	.st16{fill:#ED2224;}
	.st17{fill:none;stroke:#000000;stroke-width:6;stroke-miterlimit:10;}
	.st18{fill:none;stroke:#000000;stroke-width:4;stroke-miterlimit:10;}
	.st19{fill:none;stroke:#000000;stroke-width:5;stroke-miterlimit:10;}
	.st20{fill:none;stroke:#000000;stroke-width:6;stroke-linejoin:round;stroke-miterlimit:10;}
	.st21{stroke:#000000;stroke-miterlimit:10;}
	.st22{font-family:'Arial-BoldMT';}
	.st23{font-size:12px;}
</style>
<g id="shadow">
	<line class="st1" x1="0" y1="128.5" x2="120" y2="128.5"/>
	<polygon class="st4" points="30.1,41.6 58,13.6 58,41.6 	"/>
	<rect x="29" y="47.6" class="st1" width="28" height="74.9"/>
	<polygon class="st4" points="64.8,41.6 92,13.6 92,41.6 	"/>
	<rect x="63" y="47.6" class="st1" width="28" height="74.9"/>
	<line class="st1" x1="0" y1="138.5" x2="120" y2="138.5"/>
</g>
<g id="main">
	<line class="st8" x1="0" y1="125.5" x2="120" y2="125.5"/>
	<rect x="26" y="44.6" class="st8" width="34" height="80.9"/>
	<rect x="60" y="44.6" class="st8" width="34" height="80.9"/>
	<line class="st8" x1="0" y1="135.5" x2="120" y2="135.5"/>
	<path class="st16" d="M23,41.7v5.4h40V1.5L23,41.7z M58,42.1H29.6L58,13.6V42.1z"/>
	<path class="st16" d="M57,42.8v4.3h40V1.5L57,42.8z M92,42.1H64.3L92,13.6V42.1z"/>
</g>
</svg>
