<?xml version="1.0" encoding="utf-8"?>
<!-- Generator: Adobe Illustrator 17.0.0, SVG Export Plug-In . SVG Version: 6.00 Build 0)  -->
<!DOCTYPE svg PUBLIC "-//W3C//DTD SVG 1.1//EN" "http://www.w3.org/Graphics/SVG/1.1/DTD/svg11.dtd">
<svg version="1.1" id="Layer_1" xmlns="http://www.w3.org/2000/svg" xmlns:xlink="http://www.w3.org/1999/xlink" x="0px" y="0px"
	 width="110px" height="110px" viewBox="0 0 110 110" enable-background="new 0 0 110 110" xml:space="preserve">
<g id="draw">
	<g id="shadow">
		<path fill="#BFBFBF" d="M70.666,18.362c0,0,6.954,1.977,7.952,3.668c1.222,2.071-0.158,8.51-0.158,8.51l10.538-15.327
			L70.666,18.362z"/>
		<line fill="none" stroke="#BFBFBF" stroke-width="6" stroke-miterlimit="10" x1="32.626" y1="52.693" x2="79.397" y2="21.931"/>
		<line fill="none" stroke="#BFBFBF" stroke-width="6" stroke-miterlimit="10" x1="58.691" y1="30.904" x2="58.691" y2="55.928"/>
		<polygon fill="none" stroke="#BFBFBF" stroke-width="6" stroke-miterlimit="10" points="54.687,60.437 31.013,94.259 
			78.362,94.259"/>
	</g>
	<g id="main">
		<path fill="#000000" stroke="none" stroke-width="6" d="M71.981,12.941c0,0,6.954,1.977,7.952,3.668c1.222,2.071-0.158,8.51-0.158,8.51L90.313,9.792L71.981,12.941z"/>
		<line fill="none" stroke="#000000" stroke-width="6" stroke-miterlimit="10" x1="30.488" y1="49.34" x2="80.712" y2="16.509"/>
		<polygon fill="none" stroke="#000000" stroke-width="6" stroke-miterlimit="10" points="54.687,50.208 19.687,100.208 
			89.687,100.208"/>
		<line fill="none" stroke="#000000" stroke-width="6" stroke-miterlimit="10" x1="54.687" y1="33.521" x2="54.687" y2="50.208"/>
	</g>
</g>
<text x="55" y="60" text-anchor="middle" font-family="'Roboto-Medium'" font-size="17"></text>
</svg>
