<?xml version="1.0" encoding="utf-8"?>
<!-- Generator: Adobe Illustrator 17.0.0, SVG Export Plug-In . SVG Version: 6.00 Build 0)  -->
<!DOCTYPE svg PUBLIC "-//W3C//DTD SVG 1.1//EN" "http://www.w3.org/Graphics/SVG/1.1/DTD/svg11.dtd">
<svg version="1.1" id="Layer_1" xmlns="http://www.w3.org/2000/svg" xmlns:xlink="http://www.w3.org/1999/xlink" x="0px" y="0px"
	 width="110px" height="110px" viewBox="0 0 110 110" enable-background="new 0 0 110 110" xml:space="preserve">
<g id="draw">
	<g id="shadow">
		<line fill="none" stroke="#BFBFBF" stroke-width="4" stroke-miterlimit="10" x1="30.569" y1="48.909" x2="30.569" y2="68.909"/>
		<line fill="none" stroke="#BFBFBF" stroke-width="4" stroke-miterlimit="10" x1="20.519" y1="48.909" x2="20.519" y2="68.909"/>
		<line fill="none" stroke="#BFBFBF" stroke-width="4" stroke-miterlimit="10" x1="10.519" y1="58.909" x2="76.876" y2="58.909"/>
		<line fill="none" stroke="#BFBFBF" stroke-width="4" stroke-miterlimit="10" x1="10.519" y1="48.909" x2="10.519" y2="68.909"/>
		<path fill="none" stroke="#BFBFBF" stroke-width="4" stroke-miterlimit="10" d="M77.816,61.535c0,0,2.806-5.042,2.806-6.854
				c0-1.858-2.316-5.979-2.316-5.979l14.875,6.287L77.816,61.535z"/>
	</g>
	<g id="main">
		<line fill="none" stroke="#000000" stroke-width="4" stroke-miterlimit="10" x1="6.575" y1="55" x2="76.876" y2="55"/>
		<line fill="none" stroke="#000000" stroke-width="4" stroke-miterlimit="10" x1="6.552" y1="45" x2="6.552" y2="65"/>
		<line fill="none" stroke="#000000" stroke-width="4" stroke-miterlimit="10" x1="16.552" y1="45" x2="16.552" y2="65"/>
		<line fill="none" stroke="#000000" stroke-width="4" stroke-miterlimit="10" x1="26.552" y1="45" x2="26.552" y2="65"/>
		<path fill="none" stroke="#000000" stroke-width="4" stroke-miterlimit="10" d="M66.577,70.559c0,0,10.303-11.66,10.146-15.883
				c-0.192-5.172-10.171-15.235-10.171-15.235l36.896,15.529L66.577,70.559z"/>
	</g>
</g>
<text x="55" y="60" text-anchor="middle" font-family="'Roboto-Medium'" font-size="17"></text>
</svg>
