<?xml version="1.0" encoding="utf-8"?>
<!-- Generator: Adobe Illustrator 17.0.0, SVG Export Plug-In . SVG Version: 6.00 Build 0)  -->
<!DOCTYPE svg PUBLIC "-//W3C//DTD SVG 1.1//EN" "http://www.w3.org/Graphics/SVG/1.1/DTD/svg11.dtd">
<svg version="1.1" id="Layer_1" xmlns="http://www.w3.org/2000/svg" xmlns:xlink="http://www.w3.org/1999/xlink" x="0px" y="0px"
	 width="110px" height="110px" viewBox="0 0 110 110" enable-background="new 0 0 110 110" xml:space="preserve">
<g id="draw">
	<g id="shadow">
		<path fill="#BFBFBF" d="M55.502,24.501c0,0,1.855,3.205,2.82,3.489c1.182,0.347,4.206-1.147,4.206-1.147L56.239,34L55.502,24.501z"/>
		<polyline fill="none" stroke="#BFBFBF" stroke-width="4" stroke-miterlimit="10" points="58.76,9 56.239,19 61.239,19 
			58.127,28.337"/>
		<line fill="none" stroke="#BFBFBF" stroke-width="4" stroke-miterlimit="10" x1="101.644" y1="28.5" x2="101.644" y2="43.5"/>
		<line fill="none" stroke="#BFBFBF" stroke-width="4" stroke-miterlimit="10" x1="91.644" y1="28.5" x2="91.644" y2="43.5"/>
		<line fill="none" stroke="#BFBFBF" stroke-width="4" stroke-miterlimit="10" x1="22.248" y1="28.5" x2="22.248" y2="43.5"/>
		<line fill="none" stroke="#BFBFBF" stroke-width="4" stroke-miterlimit="10" x1="12.248" y1="28.5" x2="12.248" y2="43.5"/>
		<line fill="none" stroke="#BFBFBF" stroke-width="4" stroke-miterlimit="10" x1="21.894" y1="39.833" x2="86.425" y2="39.833"/>
		<line fill="none" stroke="#BFBFBF" stroke-width="4" stroke-miterlimit="10" x1="57.067" y1="38" x2="57.067" y2="56"/>
		<rect x="14.375" y="61.946" fill="none" stroke="#BFBFBF" stroke-width="6" stroke-miterlimit="10" width="77.938" height="33.045"/>
	</g>
	<g id="main">
		<path fill="#000000" stroke="none" stroke-width="6" d="M51.33,24.501c0,0,1.855,3.205,2.82,3.489c1.182,0.347,4.206-1.147,4.206-1.147L52.067,34L51.33,24.501z"/>
		<rect x="8.356" y="56" fill="none" stroke="#000000" stroke-width="6" stroke-miterlimit="10" width="90" height="45"/>
		<line fill="none" stroke="#000000" stroke-width="6" stroke-miterlimit="10" x1="53.356" y1="36" x2="53.356" y2="56"/>
		<line fill="none" stroke="#000000" stroke-width="4" stroke-miterlimit="10" x1="18.356" y1="28.5" x2="18.356" y2="43.5"/>
		<line fill="none" stroke="#000000" stroke-width="4" stroke-miterlimit="10" x1="8.356" y1="28.5" x2="8.356" y2="43.5"/>
		<line fill="none" stroke="#000000" stroke-width="4" stroke-miterlimit="10" x1="98.356" y1="28.5" x2="98.356" y2="43.5"/>
		<line fill="none" stroke="#000000" stroke-width="4" stroke-miterlimit="10" x1="88.356" y1="28.5" x2="88.356" y2="43.5"/>
		<line fill="none" stroke="#000000" stroke-width="6" stroke-miterlimit="10" x1="18.356" y1="36" x2="88.356" y2="36"/>
		<polyline fill="none" stroke="#000000" stroke-width="4" stroke-miterlimit="10" points="54.588,9 52.067,19 57.067,19 
			53.955,28.337"/>
	</g>
</g>
<text x="55" y="60" text-anchor="middle" font-family="'Roboto-Medium'" font-size="17"></text>
</svg>
