<?xml version="1.0" encoding="utf-8"?>
<!-- Generator: Adobe Illustrator 17.0.0, SVG Export Plug-In . SVG Version: 6.00 Build 0)  -->
<!DOCTYPE svg PUBLIC "-//W3C//DTD SVG 1.1//EN" "http://www.w3.org/Graphics/SVG/1.1/DTD/svg11.dtd">
<svg version="1.1" id="Layer_1" xmlns="http://www.w3.org/2000/svg" xmlns:xlink="http://www.w3.org/1999/xlink" x="0px" y="0px"
	 width="110px" height="110px" viewBox="0 0 110 110" enable-background="new 0 0 110 110" xml:space="preserve">
<g id="draw">
	<g id="shadow">
		<path fill="none" stroke="#BFBFBF" stroke-width="6" stroke-miterlimit="10" d="M68.546,41.807H20.083v26.25h48.463
			c4.204,0,18.406-13.076,18.406-13.076S72.75,41.807,68.546,41.807z"/>
		<polyline fill="none" stroke="#BFBFBF" stroke-width="2" stroke-miterlimit="10" points="48.938,61.812 54.417,58.562 
			50.573,57.014 56.985,51.577"/>
		<path fill="#BFBFBF" d="M57.766,55.476c0,0-0.334-3.133-0.986-3.688c-0.8-0.679-3.668-0.563-3.668-0.563l7.364-3.391
			L57.766,55.476z"/>
		<polyline fill="none" stroke="#BFBFBF" stroke-width="2" stroke-miterlimit="10" points="35.234,57.469 39.773,64.507 
			41.906,60.281 45.188,67.596"/>
		<path fill="#BFBFBF" d="M32.459,53.135l1.403,7.985c0,0,0.619-2.803,1.479-3.403c0.702-0.489,3.817-0.014,3.817-0.014
			L32.459,53.135z"/>
		<polyline fill="none" stroke="#BFBFBF" stroke-width="2" stroke-miterlimit="10" points="44.923,49.118 43.667,57.151 
			47.823,55.862 46.605,62.84"/>
		<path fill="#BFBFBF" d="M45.55,44.066l-4.182,6.946c0,0,2.307-1.708,3.349-1.597c0.851,0.091,2.89,2.494,2.89,2.494L45.55,44.066z"/>
	</g>
	<g id="main">
		<path fill="none" stroke="#FF0000" stroke-width="6" stroke-miterlimit="10" d="M68.173,36.182H14.228v37.636h53.945
			c6.929,0,27.6-18.818,27.6-18.818S75.101,36.182,68.173,36.182z"/>
		<polyline fill="none" stroke="#FF0000" stroke-width="3" stroke-miterlimit="10" points="49.735,64.218 59.884,58.226 
			55.093,56.393 61.403,50.979"/>
		<path fill="#FF0000" d="M62.061,54.896c0,0-0.288-3.138-0.932-3.702c-0.79-0.69-3.659-0.617-3.659-0.617l7.413-3.283
			L62.061,54.896z"/>
		<polyline fill="none" stroke="#FF0000" stroke-width="3" stroke-miterlimit="10" points="34.518,51.76 39.602,59.702 
			41.614,54.597 46.469,64.344"/>
		<path fill="#FF0000" d="M31.911,47.478l1.312,8.001c0,0,0.65-2.796,1.517-3.386c0.708-0.481,3.817,0.029,3.817,0.029
			L31.911,47.478z"/>
		<polyline fill="none" stroke="#FF0000" stroke-width="3" stroke-miterlimit="10" points="47.948,45.823 46.756,53.583 
			50.943,52.292 48.271,64.056"/>
		<path fill="#FF0000" d="M48.778,40.794l-4.182,6.946c0,0,2.307-1.708,3.349-1.597c0.851,0.091,2.89,2.494,2.89,2.494
			L48.778,40.794z"/>
	</g>
</g>
<text x="55" y="60" text-anchor="middle" font-family="'Roboto-Medium'" font-size="17"></text>
</svg>
