<?xml version='1.0' encoding='utf-8'?>
<!DOCTYPE svg PUBLIC '-//W3C//DTD SVG 1.1//EN' 'http://www.w3.org/Graphics/SVG/1.1/DTD/svg11.dtd'>
<!-- Generator: Adobe Illustrator 17.0.0, SVG Export Plug-In . SVG Version: 6.00 Build 0)  -->
<svg enable-background="new 0 0 150 100" xml:space="preserve" viewBox="0 0 150 100" version="1.1" id="Layer_1" x="0px" y="0px" xmlns="http://www.w3.org/2000/svg" height="100px" xmlns:xlink="http://www.w3.org/1999/xlink" width="150px">
 <g>
  <g id="draw">
   <g id="shadow">
    <path stroke-miterlimit="10" fill="none" d="M108.459,82.768&#xd;&#xa;&#x9;&#x9;&#x9;&#x9;c-8.511,2.871-19.424,4.869-33.396,4.869c-0.022,0-0.042-0.002-0.063-0.002s-0.042,0.002-0.063,0.002&#xd;&#xa;&#x9;&#x9;&#x9;&#x9;c-13.792,0-24.603-1.947-33.066-4.758" stroke="#BFBFBF" stroke-width="4"/>
    <path stroke-miterlimit="10" fill="none" d="M36.846,12.621c0.849-0.047,1.714-0.07,2.596-0.07&#xd;&#xa;&#x9;&#x9;&#x9;&#x9;c16.199,0,20.277,9.26,35.558,9.26c14.475,0,19.359-9.26,35.558-9.26c0.882,0,1.748,0.024,2.597,0.07" stroke="#BFBFBF" stroke-width="4"/>
    <path stroke-miterlimit="10" fill="none" d="M130.728,18.752&#xd;&#xa;&#x9;&#x9;&#x9;&#x9;c7.242,5.985,10.938,15.402,10.938,25.994c0,8.597-6.123,17.711-10.04,22.253c-1.203,1.395-2.835,3.155-5.032,5.045" stroke="#BFBFBF" stroke-width="4"/>
    <path stroke-miterlimit="10" fill="none" d="M19.331,18.752&#xd;&#xa;&#x9;&#x9;&#x9;&#x9;C12.09,24.737,8.393,34.154,8.393,44.745c0,8.597,6.123,17.711,10.04,22.253c1.203,1.395,2.835,3.155,5.032,5.045" stroke="#BFBFBF" stroke-width="4"/>
   </g>
   <g id="main">
    <path stroke-miterlimit="10" fill="none" d="M36.846,8.644c0.849-0.047,1.714-0.07,2.596-0.07&#xd;&#xa;&#x9;&#x9;&#x9;&#x9;c16.199,0,20.277,9.26,35.558,9.26c14.475,0,19.359-9.26,35.558-9.26c0.882,0,1.748,0.024,2.597,0.07" stroke="#ff0000" stroke-width="4"/>
    <path stroke-miterlimit="10" fill="none" d="M21.545,75.627&#xd;&#xa;&#x9;&#x9;&#x9;&#x9;c-2.662-2.239-4.61-4.333-6.025-5.973C11.171,64.609,4.37,54.487,4.37,44.94c0-11.761,4.104-22.219,12.145-28.866" stroke="#ff0000" stroke-width="4"/>
    <path stroke-miterlimit="10" fill="none" d="M109.626,86.154&#xd;&#xa;&#x9;&#x9;&#x9;&#x9;c-8.674,3.086-19.943,5.273-34.562,5.273c-0.022,0-0.042-0.002-0.063-0.002s-0.042,0.002-0.063,0.002&#xd;&#xa;&#x9;&#x9;&#x9;&#x9;c-14.342,0-25.46-2.105-34.067-5.099" stroke="#ff0000" stroke-width="4"/>
    <path stroke-miterlimit="10" fill="none" d="M133.483,16.072&#xd;&#xa;&#x9;&#x9;&#x9;&#x9;c8.042,6.647,12.147,17.106,12.147,28.868c0,9.547-6.801,19.669-11.15,24.714c-1.336,1.55-3.148,3.504-5.588,5.602" stroke="#ff0000" stroke-width="4"/>
   </g>
  </g>
 </g>
 <text/>
</svg>
