<?xml version='1.0' encoding='utf-8'?>
<!DOCTYPE svg PUBLIC '-//W3C//DTD SVG 1.1//EN' 'http://www.w3.org/Graphics/SVG/1.1/DTD/svg11.dtd'>
<!-- Generator: Adobe Illustrator 17.0.0, SVG Export Plug-In . SVG Version: 6.00 Build 0)  -->
<svg id="Layer_1" xmlns="http://www.w3.org/2000/svg" x="0px" version="1.1" y="0px" width="150px" viewBox="0 0 150 120" xml:space="preserve" xmlns:xlink="http://www.w3.org/1999/xlink" height="120px" enable-background="new 0 0 150 120">
 <g>
  <g id="draw">
   <g id="shadow">
    <line fill="none" stroke="#BFBFBF" stroke-miterlimit="10" x2="131.835" y1="15.608" y2="20.802" stroke-width="4" x1="137.985"/>
    <line fill="none" stroke="#BFBFBF" stroke-miterlimit="10" x2="113.418" y1="8.27" y2="14.859" stroke-width="4" x1="111.212"/>
    <line fill="none" stroke="#BFBFBF" stroke-miterlimit="10" x2="120.106" y1="7.51" y2="14.602" stroke-width="4" x1="120.732"/>
    <line fill="none" stroke="#BFBFBF" stroke-miterlimit="10" x2="126.964" y1="9.893" y2="16.547" stroke-width="4" x1="130.373"/>
    <path fill="none" d="M113.01,12.38&#xd;&#xa;&#x9;&#x9;&#x9;&#x9;c6.772-1.287,15.262,1.332,19.896,5.831" stroke="#BFBFBF" stroke-miterlimit="10" stroke-width="4"/>
    <path fill="none" d="M19.945,77.12&#xd;&#xa;&#x9;&#x9;&#x9;&#x9;C12.004,68.718,8.226,59.402,8.226,54.156c0-12.7,3.167-18.667,9.667-25.655" stroke="#BFBFBF" stroke-miterlimit="10" stroke-width="4"/>
    <path fill="none" d="M60.767,94.864&#xd;&#xa;&#x9;&#x9;&#x9;&#x9;c-11.746-0.406-21.403-3.688-29.089-8.31" stroke="#BFBFBF" stroke-miterlimit="10" stroke-width="4"/>
    <path fill="none" d="M140.212,60.418&#xd;&#xa;&#x9;&#x9;&#x9;&#x9;c0.861-2.588,1.285-4.936,1.285-6.867c0-12.7-3.083-18.562-9.667-24.949" stroke="#BFBFBF" stroke-miterlimit="10" stroke-width="4"/>
    <path fill="none" d="M88.955,94.966&#xd;&#xa;&#x9;&#x9;&#x9;&#x9;c21.291-0.736,35.719-10.792,43.989-21.39" stroke="#BFBFBF" stroke-miterlimit="10" stroke-width="4"/>
    <path fill="none" d="M41.157,20.995&#xd;&#xa;&#x9;&#x9;&#x9;&#x9;C55.951,21.619,60.273,30.219,75,30.219c13.951,0,18.993-8.602,33.843-9.225" stroke="#BFBFBF" stroke-miterlimit="10" stroke-width="4"/>
    <line fill="none" stroke="#BFBFBF" stroke-miterlimit="10" x2="18.165" y1="15.608" y2="20.802" stroke-width="4" x1="12.015"/>
    <line fill="none" stroke="#BFBFBF" stroke-miterlimit="10" x2="36.582" y1="8.27" y2="14.859" stroke-width="4" x1="38.788"/>
    <line fill="none" stroke="#BFBFBF" stroke-miterlimit="10" x2="29.894" y1="7.51" y2="14.602" stroke-width="4" x1="29.268"/>
    <line fill="none" stroke="#BFBFBF" stroke-miterlimit="10" x2="23.036" y1="9.893" y2="16.547" stroke-width="4" x1="19.627"/>
    <path fill="none" d="M36.99,12.38&#xd;&#xa;&#x9;&#x9;&#x9;&#x9;c-6.772-1.287-15.262,1.332-19.896,5.831" stroke="#BFBFBF" stroke-miterlimit="10" stroke-width="4"/>
    <line fill="none" stroke="#BFBFBF" stroke-miterlimit="10" x2="85.232" y1="109.349" y2="102.992" stroke-width="4" x1="89.233"/>
    <line fill="none" stroke="#BFBFBF" stroke-miterlimit="10" x2="65.127" y1="109.349" y2="102.742" stroke-width="4" x1="60.767"/>
    <line fill="none" stroke="#BFBFBF" stroke-miterlimit="10" x2="71.738" y1="112.138" y2="105.37" stroke-width="4" x1="70.243"/>
    <line fill="none" stroke="#BFBFBF" stroke-miterlimit="10" x2="79.015" y1="112.49" y2="105.116" stroke-width="4" x1="80.248"/>
    <path fill="none" d="M64.454,104.861&#xd;&#xa;&#x9;&#x9;&#x9;&#x9;c7.021,1.698,14.152,1.516,20.728,0.47" stroke="#BFBFBF" stroke-miterlimit="10" stroke-width="4"/>
   </g>
   <g id="main">
    <line fill="none" stroke="#ff0000" stroke-miterlimit="10" x2="85.232" y1="105.22" y2="98.862" stroke-width="4" x1="89.233"/>
    <line fill="none" stroke="#ff0000" stroke-miterlimit="10" x2="65.127" y1="105.22" y2="98.613" stroke-width="4" x1="60.767"/>
    <line fill="none" stroke="#ff0000" stroke-miterlimit="10" x2="71.738" y1="108.009" y2="101.24" stroke-width="4" x1="70.243"/>
    <line fill="none" stroke="#ff0000" stroke-miterlimit="10" x2="79.015" y1="108.36" y2="100.986" stroke-width="4" x1="80.248"/>
    <path fill="none" d="M64.454,100.731&#xd;&#xa;&#x9;&#x9;&#x9;&#x9;c7.021,1.698,14.152,1.516,20.728,0.47" stroke="#ff0000" stroke-miterlimit="10" stroke-width="4"/>
    <line fill="none" stroke="#ff0000" stroke-miterlimit="10" x2="18.554" y1="18.962" y2="23.809" stroke-width="4" x1="12.814"/>
    <line fill="none" stroke="#ff0000" stroke-miterlimit="10" x2="37.789" y1="11.328" y2="17.956" stroke-width="4" x1="39.686"/>
    <line fill="none" stroke="#ff0000" stroke-miterlimit="10" x2="30.694" y1="10.552" y2="17.455" stroke-width="4" x1="30.067"/>
    <line fill="none" stroke="#ff0000" stroke-miterlimit="10" x2="23.836" y1="13.247" y2="19.901" stroke-width="4" x1="20.427"/>
    <path fill="none" d="M37.789,15.734&#xd;&#xa;&#x9;&#x9;&#x9;&#x9;c-6.772-1.287-15.262,1.332-19.896,5.831" stroke="#ff0000" stroke-miterlimit="10" stroke-width="4"/>
    <line fill="none" stroke="#ff0000" stroke-miterlimit="10" x2="131.446" y1="18.962" y2="23.809" stroke-width="4" x1="137.186"/>
    <line fill="none" stroke="#ff0000" stroke-miterlimit="10" x2="112.211" y1="11.307" y2="17.956" stroke-width="4" x1="110.328"/>
    <line fill="none" stroke="#ff0000" stroke-miterlimit="10" x2="119.306" y1="10.552" y2="17.455" stroke-width="4" x1="119.933"/>
    <line fill="none" stroke="#ff0000" stroke-miterlimit="10" x2="126.164" y1="13.247" y2="19.901" stroke-width="4" x1="129.573"/>
    <path fill="none" d="M112.211,15.734&#xd;&#xa;&#x9;&#x9;&#x9;&#x9;c6.772-1.287,15.262,1.332,19.896,5.831" stroke="#ff0000" stroke-miterlimit="10" stroke-width="4"/>
    <path fill="none" d="M17.395,80.167c-0.704-0.756-1.325-1.462-1.875-2.1&#xd;&#xa;&#x9;&#x9;&#x9;&#x9;C11.171,73.022,4.37,62.9,4.37,53.353c0-11.12,3.669-21.075,10.866-27.746" stroke="#ff0000" stroke-miterlimit="10" stroke-width="4"/>
    <path fill="none" d="M60.53,99.062&#xd;&#xa;&#x9;&#x9;&#x9;&#x9;c-14.286-1.499-24.273-5.278-31.333-9.429" stroke="#ff0000" stroke-miterlimit="10" stroke-width="4"/>
    <path fill="none" d="M136.357,75.754&#xd;&#xa;&#x9;&#x9;&#x9;&#x9;c-0.655,0.854-1.289,1.63-1.877,2.313c-5.188,6.017-16.438,18.119-44.893,21.09" stroke="#ff0000" stroke-miterlimit="10" stroke-width="4"/>
    <path fill="none" d="M134.763,25.606&#xd;&#xa;&#x9;&#x9;&#x9;&#x9;c7.197,6.671,10.867,16.626,10.867,27.747c0,3.096-0.715,6.252-1.83,9.276" stroke="#ff0000" stroke-miterlimit="10" stroke-width="4"/>
    <path fill="none" d="M41.157,17.022&#xd;&#xa;&#x9;&#x9;&#x9;&#x9;C55.951,17.646,60.273,26.246,75,26.246c13.951,0,18.993-8.602,33.843-9.225" stroke="#ff0000" stroke-miterlimit="10" stroke-width="4"/>
   </g>
  </g>
 </g>
 <text/>
</svg>
