<?xml version='1.0' encoding='utf-8'?>
<!DOCTYPE svg PUBLIC '-//W3C//DTD SVG 1.1//EN' 'http://www.w3.org/Graphics/SVG/1.1/DTD/svg11.dtd'>
<!-- Generator: Adobe Illustrator 17.0.0, SVG Export Plug-In . SVG Version: 6.00 Build 0)  -->
<svg id="Layer_1" xmlns="http://www.w3.org/2000/svg" x="0px" version="1.1" y="0px" width="110px" viewBox="-1.125 23 110 110" xml:space="preserve" xmlns:xlink="http://www.w3.org/1999/xlink" height="110px" enable-background="new -1.125 23 110 110">
 <g>
  <g id="draw">
   <g id="shadow">
    <path fill="none" d="M80.016,83.066&#xd;&#xa;&#x9;&#x9;&#x9;&#x9;c-0.901-2.854-1.75-5.357-3.079-5.327c-3.634,0.083-6.934,11.315-6.934,11.315c-0.055,0.168-0.157,0.31-0.281,0.43&#xd;&#xa;&#x9;&#x9;&#x9;&#x9;c-0.179,0.173-0.412,0.29-0.682,0.296c-0.255,0.006-0.565-0.207-0.752-0.353c-0.094-0.074-0.166-0.135-0.166-0.135&#xd;&#xa;&#x9;&#x9;&#x9;&#x9;c-1.926-3.369-3.03-11.28-5.311-11.228c-3.243,0.074-6.229,9.064-6.797,10.874c-0.064,0.203-0.099,0.32-0.099,0.32&#xd;&#xa;&#x9;&#x9;&#x9;&#x9;c-0.111,0.466-0.506,0.823-1.007,0.834c-0.412,0.009-0.766-0.219-0.956-0.554c-0.12-0.215-0.236-0.449-0.351-0.696&#xd;&#xa;&#x9;&#x9;&#x9;&#x9;c-1.692-3.669-2.795-10.503-4.916-10.454c-2.864,0.066-5.515,7.063-6.503,10c-0.262,0.78-0.409,1.277-0.409,1.277&#xd;&#xa;&#x9;&#x9;&#x9;&#x9;c-0.137,0.425-0.52,0.741-0.992,0.752c-0.415,0.01-0.769-0.224-0.958-0.563c0,0-0.169-0.627-0.453-1.578&#xd;&#xa;&#x9;&#x9;&#x9;&#x9;c-0.923-3.081-3.081-9.603-4.81-9.564c-3.15,0.072-5.01,4.379-6.336,9.12c-0.203,0.724-0.393,1.457-0.574,2.187&#xd;&#xa;&#x9;&#x9;&#x9;&#x9;c-0.146,0.41-0.524,0.711-0.985,0.722c-0.446,0.01-0.835-0.252-1.008-0.634c-0.365-0.674-0.701-1.511-1.022-2.418&#xd;&#xa;&#x9;&#x9;&#x9;&#x9;c-1.324-3.737-2.392-8.694-4.2-8.653c-2.954,0.068-5.702,6.539-7.012,10.922" stroke="#BFBFBF" stroke-miterlimit="10" stroke-width="4"/>
    <circle fill="none" stroke="#BFBFBF" cy="77.739" stroke-miterlimit="10" cx="92.419" r="8.506" stroke-width="4"/>
    <path fill="none" d="M3.049,78.658c0,0,4.972-0.429,6.904,2.25&#xd;&#xa;&#x9;&#x9;&#x9;&#x9;c1.276,1.77-0.051,4.25-3.08,7.13" stroke="#BFBFBF" stroke-miterlimit="10" stroke-width="4"/>
   </g>
   <g id="main">
    <path fill="none" d="M80.016,78.51c-0.901-2.854-1.75-5.357-3.079-5.327&#xd;&#xa;&#x9;&#x9;&#x9;&#x9;c-3.634,0.083-6.934,11.315-6.934,11.315c-0.055,0.168-0.157,0.31-0.281,0.43c-0.179,0.173-0.412,0.29-0.682,0.296&#xd;&#xa;&#x9;&#x9;&#x9;&#x9;c-0.255,0.006-0.565-0.207-0.752-0.353c-0.094-0.074-0.166-0.135-0.166-0.135c-1.926-3.369-3.03-11.28-5.311-11.228&#xd;&#xa;&#x9;&#x9;&#x9;&#x9;c-3.243,0.074-6.229,9.064-6.797,10.874c-0.064,0.203-0.099,0.32-0.099,0.32c-0.111,0.466-0.506,0.823-1.007,0.834&#xd;&#xa;&#x9;&#x9;&#x9;&#x9;c-0.412,0.009-0.766-0.219-0.956-0.554c-0.12-0.215-0.236-0.449-0.351-0.696c-1.692-3.669-2.795-10.503-4.916-10.454&#xd;&#xa;&#x9;&#x9;&#x9;&#x9;c-2.864,0.066-5.515,7.063-6.503,10c-0.262,0.78-0.409,1.277-0.409,1.277c-0.137,0.425-0.52,0.741-0.992,0.752&#xd;&#xa;&#x9;&#x9;&#x9;&#x9;c-0.415,0.01-0.769-0.224-0.958-0.563c0,0-0.169-0.627-0.453-1.578c-0.923-3.081-3.081-9.603-4.81-9.564&#xd;&#xa;&#x9;&#x9;&#x9;&#x9;c-3.15,0.072-5.01,4.379-6.336,9.12c-0.203,0.724-0.393,1.457-0.574,2.187c-0.146,0.41-0.524,0.711-0.985,0.722&#xd;&#xa;&#x9;&#x9;&#x9;&#x9;c-0.446,0.01-0.835-0.252-1.008-0.634c-0.365-0.674-0.701-1.511-1.022-2.418c-1.324-3.737-2.392-8.694-4.2-8.653&#xd;&#xa;&#x9;&#x9;&#x9;&#x9;c-2.954,0.068-5.702,6.539-7.012,10.922" stroke="#000000" stroke-miterlimit="10" stroke-width="4"/>
    <circle fill="none" stroke="#000000" cy="77.739" stroke-miterlimit="10" cx="92.419" r="12.5" stroke-width="4"/>
    <path fill="none" d="M2.831,74.724c0,0,7.964-0.415,11.304,5.037&#xd;&#xa;&#x9;&#x9;&#x9;&#x9;c1.342,2.19-1.304,7.5-4.332,11" stroke="#000000" stroke-miterlimit="10" stroke-width="4"/>
   </g>
  </g>
  <text fill="#231f20" font-size="11" fill-capacity="0" font-family="'Roboto-Medium'" stroke-capacity="0" transform="matrix(1 0 0 1 89.2929 80.9532)"></text>
 </g>
</svg>
