<?xml version='1.0' encoding='utf-8'?>
<!DOCTYPE svg PUBLIC '-//W3C//DTD SVG 1.1//EN' 'http://www.w3.org/Graphics/SVG/1.1/DTD/svg11.dtd'>
<!-- Generator: Adobe Illustrator 17.0.0, SVG Export Plug-In . SVG Version: 6.00 Build 0)  -->
<svg id="Layer_1" xmlns="http://www.w3.org/2000/svg" x="0px" version="1.1" y="0px" width="110px" viewBox="0 0 110 110" xml:space="preserve" xmlns:xlink="http://www.w3.org/1999/xlink" height="110px" enable-background="new 0 0 110 110">
 <g>
  <g id="draw">
   <g id="shadow">
    <line fill="none" stroke="#BFBFBF" stroke-miterlimit="10" x2="58.921" y1="38.292" y2="90.928" stroke-width="4" x1="58.921"/>
    <polyline points="57.344,34.821 62.421,26.201 &#xd;&#xa;&#x9;&#x9;&#x9;&#x9;66.937,31.176 73.766,17.581 &#x9;" fill="none" stroke="#BFBFBF" stroke-miterlimit="10" stroke-width="4"/>
    <path fill="#BFBFBF" d="M77.79,23.8c0,0-2.402-5.52-3.909-6.156c-1.845-0.779-7.006,1.073-7.006,1.073L78.357,8.322L77.79,23.8z"/>
    <polygon points="55,38.93 27.046,86.845 82.879,86.845 &#x9;" fill="none" stroke="#BFBFBF" stroke-miterlimit="10" stroke-width="4"/>
   </g>
   <g id="main">
    <polygon points="55,30.928 20,90.928 90,90.928 &#x9;" fill="none" stroke="#000000" stroke-miterlimit="10" stroke-width="4"/>
    <polyline points="55,30.966 61.712,19.511 65.983,24.174 &#xd;&#xa;&#x9;&#x9;&#x9;&#x9;71.422,13.726 &#x9;" fill="none" stroke="#000000" stroke-miterlimit="10" stroke-width="4"/>
    <path fill="#000000" d="M75.446,19.945c0,0-2.402-5.52-3.909-6.156c-1.845-0.779-7.006,1.073-7.006,1.073L76.013,4.467&#xd;&#xa;&#x9;&#x9;&#x9;&#x9;&#x9;L75.446,19.945z"/>
    <line fill="none" stroke="#000000" stroke-miterlimit="10" x2="55" y1="30.966" y2="90.928" stroke-width="4" x1="55"/>
   </g>
  </g>
  <text fill="#231f20" font-size="10" fill-capacity="0" font-family="'MyriadPro-Regular'" stroke-capacity="0" transform="matrix(1 0 0 1 35.7507 103.033)"></text>
 </g>
</svg>
