<?xml version='1.0' encoding='utf-8'?>
<!DOCTYPE svg PUBLIC '-//W3C//DTD SVG 1.1//EN' 'http://www.w3.org/Graphics/SVG/1.1/DTD/svg11.dtd'>
<!-- Generator: Adobe Illustrator 17.0.0, SVG Export Plug-In . SVG Version: 6.00 Build 0)  -->
<svg id="Layer_1" xmlns="http://www.w3.org/2000/svg" x="0px" version="1.1" y="0px" width="110px" viewBox="0 0 110 110" xml:space="preserve" xmlns:xlink="http://www.w3.org/1999/xlink" height="110px" enable-background="new 0 0 110 110">
 <g>
  <g id="draw">
   <g id="shadow">
    <polyline points="71.789,17.412 66.712,26.031 &#xd;&#xa;&#x9;&#x9;&#x9;&#x9;&#x9;62.196,21.056 55.367,34.651 &#x9;&#x9;" fill="none" stroke="#BFBFBF" stroke-miterlimit="10" stroke-width="4"/>
    <path fill="#BFBFBF" d="M51.343,28.432c0,0,2.402,5.52,3.909,6.156c1.845,0.779,7.006-1.073,7.006-1.073L50.776,43.91&#xd;&#xa;&#x9;&#x9;&#x9;&#x9;&#x9;&#x9;L51.343,28.432z"/>
    <rect x="13.892" fill="none" stroke="#BFBFBF" y="51.534" stroke-miterlimit="10" width="82.216" height="37.108" stroke-width="4"/>
   </g>
   <g id="main">
    <rect x="10" fill="none" stroke="#000000" y="47.588" stroke-miterlimit="10" width="90" height="45" stroke-width="4"/>
    <polyline points="74.133,21.267 67.421,32.721 &#xd;&#xa;&#x9;&#x9;&#x9;&#x9;&#x9;63.15,28.058 57.711,38.506 &#x9;&#x9;" fill="none" stroke="#000000" stroke-miterlimit="10" stroke-width="4"/>
    <path fill="#000000" d="M53.687,32.287c0,0,2.402,5.52,3.909,6.156c1.845,0.779,7.006-1.073,7.006-1.073L53.12,47.765&#xd;&#xa;&#x9;&#x9;&#x9;&#x9;&#x9;&#x9;L53.687,32.287z"/>
   </g>
  </g>
  <text fill="#231f20" font-size="17" fill-capacity="0" font-family="'Roboto-Medium'" stroke-capacity="0" transform="matrix(1 0 0 1 40.5071 75.0563)"></text>
 </g>
</svg>
