<?xml version='1.0' encoding='utf-8'?>
<!DOCTYPE svg PUBLIC '-//W3C//DTD SVG 1.1//EN' 'http://www.w3.org/Graphics/SVG/1.1/DTD/svg11.dtd'>
<!-- Generator: Adobe Illustrator 17.0.0, SVG Export Plug-In . SVG Version: 6.00 Build 0)  -->
<svg id="Layer_1" xmlns="http://www.w3.org/2000/svg" x="0px" version="1.1" y="0px" width="110px" viewBox="-1.125 23 110 110" xml:space="preserve" xmlns:xlink="http://www.w3.org/1999/xlink" height="110px" enable-background="new -1.125 23 110 110">
 <g>
  <g id="draw">
   <g id="shadow">
    <path fill="none" d="M14.646,56.692&#xd;&#xa;&#x9;&#x9;&#x9;&#x9;c-0.743,1.03-1.178,2.263-1.178,3.591c0,3.603,2.806,7.261,7.118,7.261c4.439,0,7.118-3.658,7.118-7.261&#xd;&#xa;&#x9;&#x9;&#x9;&#x9;c0-1.327-0.435-2.561-1.178-3.591" stroke="#BFBFBF" stroke-miterlimit="10" stroke-width="4"/>
    <ellipse fill="none" stroke="#BFBFBF" cy="86.547" stroke-miterlimit="10" cx="20.618" rx="11.066" stroke-width="4" ry="11.116"/>
    <line fill="none" stroke="#BFBFBF" stroke-miterlimit="10" x2="94.718" y1="90.596" y2="90.596" stroke-width="4" x1="34.697"/>
    <path fill="#BFBFBF" d="M91.674,94.906c0,0,3.037-3.068,3.06-4.24c0.028-1.436-2.578-4.38-2.578-4.38l9.976,4.881L91.674,94.906z"/>
   </g>
   <g id="main">
    <line fill="none" stroke="#000000" stroke-miterlimit="10" x2="35.197" y1="86.547" y2="86.547" stroke-width="4" x1="34.697"/>
    <line fill="none" stroke="#000000" stroke-miterlimit="10" x2="93.718" y1="86.547" stroke-dasharray="" y2="86.547" stroke-width="4" x1="36.198"/>
    <line fill="none" stroke="#000000" stroke-miterlimit="10" x2="94.718" y1="86.547" y2="86.547" stroke-width="4" x1="94.218"/>
    <path fill="#000000" d="M91.674,90.857c0,0,3.037-3.068,3.06-4.24c0.028-1.436-2.578-4.38-2.578-4.38l9.976,4.881L91.674,90.857z"/>
    <circle fill="none" stroke="#000000" cy="86.547" stroke-miterlimit="10" cx="20.618" r="15" stroke-width="4"/>
    <path fill="none" d="M11.418,54.453&#xd;&#xa;&#x9;&#x9;&#x9;&#x9;c-1.151,1.741-1.825,3.825-1.825,6.069c0,6.089,4.936,11.025,11.025,11.025s11.025-4.936,11.025-11.025&#xd;&#xa;&#x9;&#x9;&#x9;&#x9;c0-2.243-0.674-4.327-1.825-6.069" stroke="#000000" stroke-miterlimit="10" stroke-width="4"/>
   </g>
  </g>
 </g>
 <text/>
</svg>
