<?xml version='1.0' encoding='utf-8'?>
<!DOCTYPE svg PUBLIC '-//W3C//DTD SVG 1.1//EN' 'http://www.w3.org/Graphics/SVG/1.1/DTD/svg11.dtd'>
<!-- Generator: Adobe Illustrator 17.0.0, SVG Export Plug-In . SVG Version: 6.00 Build 0)  -->
<svg id="Layer_1" xmlns="http://www.w3.org/2000/svg" x="0px" version="1.1" y="0px" width="110px" viewBox="0 0 110 110" xml:space="preserve" xmlns:xlink="http://www.w3.org/1999/xlink" height="110px" enable-background="new 0 0 110 110">
 <g>
  <g id="draw">
   <g id="shadow">
    <rect x="38.546" fill="none" stroke="#BFBFBF" y="46.625" stroke-miterlimit="10" width="33" height="11.819" stroke-width="4"/>
    <path fill="#BFBFBF" d="M64.206,31.759c0,0-6.02,0.094-7.221-1.014c-1.472-1.358-1.919-6.823-1.919-6.823l-4.719,14.752&#xd;&#xa;&#x9;&#x9;&#x9;&#x9;&#x9;&#x9;&#x9;L64.206,31.759z"/>
    <polyline points="70.551,22.084 65.814,28.122 &#xd;&#xa;&#x9;&#x9;&#x9;&#x9;&#x9;&#x9;61.984,24.122 56.984,30.744 &#x9;&#x9;&#x9;" fill="none" stroke="#BFBFBF" stroke-miterlimit="10" stroke-width="4"/>
    <rect x="14.046" fill="none" stroke="#BFBFBF" y="22.406" stroke-miterlimit="10" width="82" height="47.083" stroke-width="4"/>
    <circle fill="none" stroke="#BFBFBF" cy="83.383" stroke-miterlimit="10" cx="37.966" r="7.5" stroke-width="4"/>
    <circle fill="none" stroke="#BFBFBF" cy="83.383" stroke-miterlimit="10" cx="77.966" r="7.5" stroke-width="4"/>
   </g>
   <g id="main">
    <rect x="10" fill="none" stroke="#000000" y="18.383" stroke-miterlimit="10" width="90" height="55" stroke-width="4"/>
    <circle fill="none" stroke="#000000" cy="84.117" stroke-miterlimit="10" cx="34.945" r="7.5" stroke-width="4"/>
    <circle fill="none" stroke="#000000" cy="84.117" stroke-miterlimit="10" cx="74.945" r="7.5" stroke-width="4"/>
    <path fill="#000000" d="M64.494,37.877c0,0-6.02,0.094-7.221-1.014c-1.472-1.358-1.919-6.823-1.919-6.823l-4.719,14.752&#xd;&#xa;&#x9;&#x9;&#x9;&#x9;&#x9;&#x9;&#x9;L64.494,37.877z"/>
    <polyline points="72.272,26.376 66.102,34.24 &#xd;&#xa;&#x9;&#x9;&#x9;&#x9;&#x9;&#x9;62.272,30.24 57.272,36.862 &#x9;&#x9;&#x9;" fill="none" stroke="#000000" stroke-miterlimit="10" stroke-width="4"/>
    <rect x="35.046" fill="none" stroke="#000000" y="42.959" stroke-miterlimit="10" width="40" height="19.153" stroke-width="4"/>
   </g>
  </g>
 </g>
 <text/>
</svg>
