<?xml version='1.0' encoding='utf-8'?>
<!DOCTYPE svg PUBLIC '-//W3C//DTD SVG 1.1//EN' 'http://www.w3.org/Graphics/SVG/1.1/DTD/svg11.dtd'>
<!-- Generator: Adobe Illustrator 17.0.0, SVG Export Plug-In . SVG Version: 6.00 Build 0)  -->
<svg id="Layer_1" xmlns="http://www.w3.org/2000/svg" x="0px" version="1.1" y="0px" width="120px" viewBox="-5 -5 120 120" xml:space="preserve" xmlns:xlink="http://www.w3.org/1999/xlink" height="120px" enable-background="new -5 -5 120 120">
 <g>
  <g id="draw">
   <g id="shadow">
    <path fill="none" d="M66.034,59.083c-2.735,0-5.292,0.744-7.5,2.023&#xd;&#xa;&#x9;&#x9;&#x9;&#x9;c4.479,2.595,7.5,7.428,7.5,12.977c0,5.549-3.021,10.382-7.5,12.977c2.208,1.279,4.765,2.023,7.5,2.023c8.284,0,15-6.716,15-15&#xd;&#xa;&#x9;&#x9;&#x9;&#x9;C81.034,65.799,74.318,59.083,66.034,59.083z" stroke="#BFBFBF" stroke-miterlimit="10" stroke-width="4"/>
    <line fill="none" stroke="#BFBFBF" stroke-miterlimit="10" x2="95" y1="44.002" y2="44.002" stroke-width="4" x1="15"/>
    <polygon points="39.098,17.803 34.808,26.383 &#xd;&#xa;&#x9;&#x9;&#x9;&#x9;43.389,26.383 &#x9;" fill="none" stroke="#BFBFBF" stroke-miterlimit="10" stroke-width="4"/>
    <circle fill="none" stroke="#BFBFBF" cy="74.083" stroke-miterlimit="10" cx="40" r="11.107" stroke-width="4"/>
    <rect x="18.95" fill="none" stroke="#BFBFBF" y="3.983" stroke-miterlimit="10" width="72.104" height="102.034" stroke-width="4"/>
   </g>
   <g id="main">
    <rect x="15" fill="none" stroke="#000000" stroke-miterlimit="10" width="80" height="110" stroke-width="4"/>
    <line fill="none" stroke="#000000" stroke-miterlimit="10" x2="95" y1="40" y2="40" stroke-width="4" x1="15"/>
    <polygon points="39.098,10 29.098,30 49.098,30 &#x9;" fill="none" stroke="#000000" stroke-miterlimit="10" stroke-width="4"/>
    <circle fill="none" stroke="#000000" cy="74.083" stroke-miterlimit="10" cx="40" r="15" stroke-width="4"/>
    <path fill="none" d="M55,59.083c-2.735,0-5.292,0.744-7.5,2.023&#xd;&#xa;&#x9;&#x9;&#x9;&#x9;c4.479,2.595,7.5,7.428,7.5,12.977c0,5.549-3.021,10.382-7.5,12.977c2.208,1.279,4.765,2.023,7.5,2.023c8.284,0,15-6.716,15-15&#xd;&#xa;&#x9;&#x9;&#x9;&#x9;C70,65.799,63.284,59.083,55,59.083z" stroke="#000000" stroke-miterlimit="10" stroke-width="4"/>
    <path fill="none" d="M70,59.083c-2.735,0-5.292,0.744-7.5,2.023&#xd;&#xa;&#x9;&#x9;&#x9;&#x9;c4.479,2.595,7.5,7.428,7.5,12.977c0,5.549-3.021,10.382-7.5,12.977c2.208,1.279,4.765,2.023,7.5,2.023c8.284,0,15-6.716,15-15&#xd;&#xa;&#x9;&#x9;&#x9;&#x9;C85,65.799,78.284,59.083,70,59.083z" stroke="#000000" stroke-miterlimit="10" stroke-width="4"/>
   </g>
  </g>
  <text fill="#231f20" font-size="15" fill-capacity="0" font-family="'Roboto-Medium'" stroke-capacity="0" transform="matrix(1 0 0 1 54.473 25.0001)"></text>
  <text fill="#231f20" font-size="15" fill-capacity="0" font-family="'Roboto-Medium'" stroke-capacity="0" transform="matrix(1 0 0 1 35.7374 79.1876)"></text>
 </g>
</svg>
