<?xml version='1.0' encoding='utf-8'?>
<!DOCTYPE svg PUBLIC '-//W3C//DTD SVG 1.1//EN' 'http://www.w3.org/Graphics/SVG/1.1/DTD/svg11.dtd'>
<!-- Generator: Adobe Illustrator 17.0.0, SVG Export Plug-In . SVG Version: 6.00 Build 0)  -->
<svg id="Layer_1" xmlns="http://www.w3.org/2000/svg" x="0px" version="1.1" y="0px" width="110px" viewBox="0 0 110 110" xml:space="preserve" xmlns:xlink="http://www.w3.org/1999/xlink" height="110px" enable-background="new 0 0 110 110">
 <g>
  <g id="draw">
   <g id="shadow">
    <circle fill="none" stroke="#BFBFBF" cy="84.006" stroke-miterlimit="10" cx="38.845" r="5" stroke-width="4"/>
    <circle fill="none" stroke="#BFBFBF" cy="84.006" stroke-miterlimit="10" cx="73.845" r="5" stroke-width="4"/>
    <polygon points="23.75,52.756 68.108,52.756 78.462,62.964 &#xd;&#xa;&#x9;&#x9;&#x9;&#x9;86.046,62.964 86.046,75.255 23.75,75.255 &#x9;" fill="none" stroke="#BFBFBF" stroke-miterlimit="10" stroke-width="4"/>
    <polyline points="49.39,49.256 53.234,42.728 &#xd;&#xa;&#x9;&#x9;&#x9;&#x9;&#x9;57.751,47.703 64.58,34.108 &#x9;&#x9;" fill="none" stroke="#BFBFBF" stroke-miterlimit="10" stroke-width="4"/>
    <path fill="#BFBFBF" d="M68.603,40.327c0,0-2.402-5.52-3.909-6.156c-1.845-0.779-7.006,1.073-7.006,1.073l11.482-10.395&#xd;&#xa;&#x9;&#x9;&#x9;&#x9;&#x9;&#x9;L68.603,40.327z"/>
   </g>
   <g id="main">
    <polyline points="45,49.015 52.526,36.039 56.797,40.701 &#xd;&#xa;&#x9;&#x9;&#x9;&#x9;&#x9;62.236,30.253 &#x9;&#x9;" fill="none" stroke="#000000" stroke-miterlimit="10" stroke-width="4"/>
    <path fill="#000000" d="M66.26,36.472c0,0-2.402-5.52-3.909-6.156c-1.845-0.779-7.006,1.073-7.006,1.073l11.482-10.395&#xd;&#xa;&#x9;&#x9;&#x9;&#x9;&#x9;&#x9;L66.26,36.472z"/>
    <polygon points="20,49.006 70,49.006 80,59.006 90,59.006 &#xd;&#xa;&#x9;&#x9;&#x9;&#x9;90,79.006 20,79.006 &#x9;" fill="none" stroke="#000000" stroke-miterlimit="10" stroke-width="4"/>
    <circle fill="none" stroke="#000000" cy="84.006" stroke-miterlimit="10" cx="35" r="5" stroke-width="4"/>
    <circle fill="none" stroke="#000000" cy="84.006" stroke-miterlimit="10" cx="70" r="5" stroke-width="4"/>
   </g>
  </g>
  <text fill="#231f20" font-size="10" fill-capacity="0" font-family="'Roboto-Medium'" stroke-capacity="0" transform="matrix(1 0 0 1 36.2169 67.4217)"></text>
 </g>
</svg>
